<?xml version="1.0" encoding="UTF-8"?>
<!-- Generated by Pixelmator Pro 3.4.3 -->
<svg width="3300" height="2200" viewBox="0 0 3300 2200" xmlns="http://www.w3.org/2000/svg">
    <g id="Page-1">
        <g id="circuit">
            <g id="Notes">
                <path id="artboard" fill="#ffffff" stroke="none" d="M 0 0 L 3300 0 L 3300 2200 L 0 2200 Z"/>
                <path id="Path" fill="none" stroke="#000000" stroke-width="0.5" d="M 263 292 L 3036 292"/>
                <text id="WeightScale-Variations" xml:space="preserve" x="263" y="322" font-family="Helvetica" font-size="13" font-weight="700" fill="#000000">Weight/Scale Variations</text>
                <text id="Ultralight" xml:space="preserve" x="534" y="322" font-family="Helvetica" font-size="13" fill="#000000">Ultralight</text>
                <text id="Thin" xml:space="preserve" x="843" y="322" font-family="Helvetica" font-size="13" fill="#000000">Thin</text>
                <text id="Light" xml:space="preserve" x="1139" y="322" font-family="Helvetica" font-size="13" fill="#000000">Light</text>
                <text id="Regular" xml:space="preserve" x="1427" y="322" font-family="Helvetica" font-size="13" fill="#000000">Regular</text>
                <text id="Medium" xml:space="preserve" x="1723" y="322" font-family="Helvetica" font-size="13" fill="#000000">Medium</text>
                <text id="Semibold" xml:space="preserve" x="2016" y="322" font-family="Helvetica" font-size="13" fill="#000000">Semibold</text>
                <text id="Bold" xml:space="preserve" x="2326" y="322" font-family="Helvetica" font-size="13" fill="#000000">Bold</text>
                <text id="Heavy" xml:space="preserve" x="2618" y="322" font-family="Helvetica" font-size="13" fill="#000000">Heavy</text>
                <text id="Black" xml:space="preserve" x="2917" y="322" font-family="Helvetica" font-size="13" fill="#000000">Black</text>
                <path id="path1" fill="none" stroke="#000000" stroke-width="0.5" d="M 263 1903 L 3036 1903"/>
                <g id="Group">
                    <path id="Shape" fill="#000000" stroke="none" d="M 272.248047 1933.830078 C 276.554688 1933.830078 280.138702 1930.255859 280.138702 1925.949219 C 280.138702 1921.642578 276.544891 1918.068359 272.238281 1918.068359 C 267.941406 1918.068359 264.367188 1921.642578 264.367188 1925.949219 C 264.367188 1930.255859 267.951172 1933.830078 272.248047 1933.830078 Z M 272.248047 1932.345703 C 268.703125 1932.345703 265.871094 1929.503906 265.871094 1925.949219 C 265.871094 1922.394531 268.693359 1919.552734 272.238281 1919.552734 C 275.792999 1919.552734 278.634796 1922.394531 278.644531 1925.949219 C 278.654297 1929.503906 275.802704 1932.345703 272.248047 1932.345703 Z M 272.228516 1929.572266 C 272.697266 1929.572266 272.970703 1929.259766 272.970703 1928.742188 L 272.970703 1926.681641 L 275.197296 1926.681641 C 275.695313 1926.681641 276.037109 1926.427734 276.037109 1925.958984 C 276.037109 1925.480469 275.714813 1925.216797 275.197296 1925.216797 L 272.970703 1925.216797 L 272.970703 1922.990234 C 272.970703 1922.472656 272.697266 1922.150391 272.228516 1922.150391 C 271.759766 1922.150391 271.505859 1922.492188 271.505859 1922.990234 L 271.505859 1925.216797 L 269.298828 1925.216797 C 268.78125 1925.216797 268.449219 1925.480469 268.449219 1925.958984 C 268.449219 1926.427734 268.800781 1926.681641 269.298828 1926.681641 L 271.505859 1926.681641 L 271.505859 1928.742188 C 271.505859 1929.240234 271.759766 1929.572266 272.228516 1929.572266 Z"/>
                </g>
                <g id="g1">
                    <path id="path2" fill="#000000" stroke="none" d="M 293.214996 1935.910156 C 298.664185 1935.910156 303.175903 1931.398438 303.175903 1925.949219 C 303.175903 1920.509766 298.654388 1915.988281 293.2052 1915.988281 C 287.765778 1915.988281 283.254059 1920.509766 283.254059 1925.949219 C 283.254059 1931.398438 287.775543 1935.910156 293.214996 1935.910156 Z M 293.214996 1934.25 C 288.605621 1934.25 284.923981 1930.558594 284.923981 1925.949219 C 284.923981 1921.349609 288.595825 1917.648438 293.2052 1917.648438 C 297.814606 1917.648438 301.506012 1921.349609 301.515808 1925.949219 C 301.525513 1930.558594 297.824402 1934.25 293.214996 1934.25 Z M 293.195496 1930.587891 C 293.713013 1930.587891 294.025513 1930.226563 294.025513 1929.660156 L 294.025513 1926.769531 L 297.082214 1926.769531 C 297.628998 1926.769531 298.009888 1926.486328 298.009888 1925.96875 C 298.009888 1925.441406 297.64859 1925.138672 297.082214 1925.138672 L 294.025513 1925.138672 L 294.025513 1922.072266 C 294.025513 1921.496094 293.713013 1921.144531 293.195496 1921.144531 C 292.677887 1921.144531 292.384888 1921.515625 292.384888 1922.072266 L 292.384888 1925.138672 L 289.338043 1925.138672 C 288.771606 1925.138672 288.400543 1925.441406 288.400543 1925.96875 C 288.400543 1926.486328 288.791168 1926.769531 289.338043 1926.769531 L 292.384888 1926.769531 L 292.384888 1929.660156 C 292.384888 1930.207031 292.677887 1930.587891 293.195496 1930.587891 Z"/>
                </g>
                <g id="g2">
                    <path id="path3" fill="#000000" stroke="none" d="M 319.894714 1938.673828 C 326.857605 1938.673828 332.619293 1932.921875 332.619293 1925.958984 C 332.619293 1918.996094 326.847809 1913.244141 319.884888 1913.244141 C 312.931824 1913.244141 307.179871 1918.996094 307.179871 1925.958984 C 307.179871 1932.921875 312.941589 1938.673828 319.894714 1938.673828 Z M 319.894714 1936.857422 C 313.859558 1936.857422 309.006042 1931.994141 309.006042 1925.958984 C 309.006042 1919.923828 313.849792 1915.060547 319.884888 1915.060547 C 325.929901 1915.060547 330.783386 1919.923828 330.793121 1925.958984 C 330.802887 1931.994141 325.939606 1936.857422 319.894714 1936.857422 Z M 319.875214 1931.935547 C 320.441589 1931.935547 320.793091 1931.544922 320.793091 1930.939453 L 320.793091 1926.867188 L 325.031403 1926.867188 C 325.617401 1926.867188 326.037292 1926.535156 326.037292 1925.978516 C 326.037292 1925.402344 325.646698 1925.060547 325.031403 1925.060547 L 320.793091 1925.060547 L 320.793091 1920.8125 C 320.793091 1920.197266 320.441589 1919.806641 319.875214 1919.806641 C 319.308807 1919.806641 318.986511 1920.216797 318.986511 1920.8125 L 318.986511 1925.060547 L 314.757965 1925.060547 C 314.142761 1925.060547 313.732605 1925.402344 313.732605 1925.978516 C 313.732605 1926.535156 314.162292 1926.867188 314.757965 1926.867188 L 318.986511 1926.867188 L 318.986511 1930.939453 C 318.986511 1931.525391 319.308807 1931.935547 319.875214 1931.935547 Z"/>
                </g>
                <text id="Design-Variations" xml:space="preserve" x="263" y="1953" font-family="Helvetica" font-size="13" font-weight="700" fill="#000000">Design Variations</text>
                <text id="Symbols-are-supported-in" xml:space="preserve" x="263" y="1971" font-family="Helvetica" font-size="13" fill="#000000">Symbols are supported in up to nine weights and three scales.</text>
                <text id="For-optimal-layout-with" xml:space="preserve" x="263" y="1989" font-family="Helvetica" font-size="13" fill="#000000">For optimal layout with text and other symbols, vertically align</text>
                <text id="symbols-with-the-adjacent" xml:space="preserve" x="263" y="2007" font-family="Helvetica" font-size="13" fill="#000000">symbols with the adjacent text.</text>
                <path id="Rectangle" fill="#00aeef" stroke="none" opacity="0.4" d="M 776 1919 L 779 1919 L 779 1933 L 776 1933 Z"/>
                <g id="g3">
                    <path id="path4" fill="#000000" stroke="none" d="M 789.527283 1933 L 791.372986 1933 L 786.177734 1918.908203 L 784.439453 1918.908203 L 779.244141 1933 L 781.089844 1933 L 782.505859 1928.966797 L 788.111328 1928.966797 L 789.527283 1933 Z M 785.279297 1921.046875 L 785.337891 1921.046875 L 787.59375 1927.472656 L 783.023438 1927.472656 L 785.279297 1921.046875 Z"/>
                </g>
                <path id="path5" fill="#00aeef" stroke="none" opacity="0.4" d="M 791.617004 1919 L 794.617004 1919 L 794.617004 1933 L 791.617004 1933 Z"/>
                <text id="Margins" xml:space="preserve" x="776" y="1953" font-family="Helvetica" font-size="13" font-weight="700" fill="#000000">Margins</text>
                <text id="Leading-and-trailing-margins" xml:space="preserve" x="776" y="1971" font-family="Helvetica" font-size="13" fill="#000000">Leading and trailing margins on the left and right side of each symbol</text>
                <text id="can-be-adjusted-by" xml:space="preserve" x="776" y="1989" font-family="Helvetica" font-size="13" fill="#000000">can be adjusted by modifying the width of the blue rectangles.</text>
                <text id="Modifications-are-automatically-applied" xml:space="preserve" x="776" y="2007" font-family="Helvetica" font-size="13" fill="#000000">Modifications are automatically applied proportionally to all</text>
                <text id="scales-and-weights" xml:space="preserve" x="776" y="2025" font-family="Helvetica" font-size="13" fill="#000000">scales and weights.</text>
                <g id="g4">
                    <path id="path6" fill="#000000" stroke="none" d="M 1291.832031 1936.115234 L 1293.375 1937.658203 C 1294.224609 1938.488281 1295.191406 1938.419922 1296.060547 1937.462891 L 1306.275391 1926.339844 C 1306.705078 1926.632813 1307.095703 1926.623047 1307.564453 1926.525391 L 1308.609375 1926.310547 L 1309.302734 1927.003906 L 1309.253906 1927.521484 C 1309.185547 1928.048828 1309.351563 1928.46875 1309.849609 1928.966797 L 1310.660156 1929.777344 C 1311.167969 1930.285156 1311.822266 1930.314453 1312.300781 1929.835938 L 1315.552734 1926.583984 C 1316.03125 1926.105469 1316.011719 1925.451172 1315.503906 1924.943359 L 1314.683594 1924.123047 C 1314.185547 1923.625 1313.775391 1923.449219 1313.238281 1923.527344 L 1312.710938 1923.585938 L 1312.056641 1922.921875 L 1312.339844 1921.779297 C 1312.486328 1921.212891 1312.339844 1920.744141 1311.714844 1920.138672 L 1309.302734 1917.746094 C 1305.757813 1914.220703 1301.226563 1914.328125 1298.111328 1917.462891 C 1297.691406 1917.892578 1297.642578 1918.478516 1297.916016 1918.908203 C 1298.150391 1919.279297 1298.628906 1919.503906 1299.273438 1919.337891 C 1300.787109 1918.957031 1302.300781 1919.074219 1303.785156 1920.080078 L 1303.160156 1921.662109 C 1302.925781 1922.248047 1302.945313 1922.726563 1303.179688 1923.166016 L 1292.017578 1933.439453 C 1291.080078 1934.308594 1290.972656 1935.255859 1291.832031 1936.115234 Z M 1299.673828 1917.853516 C 1302.339844 1915.861328 1305.650391 1916.173828 1308.052734 1918.585938 L 1310.679688 1921.193359 C 1310.914063 1921.427734 1310.943359 1921.613281 1310.884766 1921.90625 L 1310.503906 1923.46875 L 1312.076172 1925.041016 L 1313.042969 1924.953125 C 1313.326172 1924.923828 1313.414063 1924.943359 1313.638672 1925.167969 L 1314.263672 1925.792969 L 1311.509766 1928.537109 L 1310.884766 1927.921875 C 1310.660156 1927.697266 1310.640625 1927.599609 1310.669922 1927.316406 L 1310.757813 1926.359375 L 1309.195313 1924.796875 L 1307.574219 1925.109375 C 1307.291016 1925.167969 1307.144531 1925.167969 1306.910156 1924.923828 L 1304.732422 1922.746094 C 1304.507813 1922.511719 1304.478516 1922.375 1304.605469 1922.052734 L 1305.552734 1919.777344 C 1303.951172 1918.244141 1301.841797 1917.394531 1299.800781 1918.048828 C 1299.712891 1918.078125 1299.644531 1918.058594 1299.615234 1918.019531 C 1299.585938 1917.970703 1299.585938 1917.921875 1299.673828 1917.853516 Z M 1293.101563 1935.412109 C 1292.613281 1934.914063 1292.789063 1934.611328 1293.121094 1934.308594 L 1304.078125 1924.191406 L 1305.308594 1925.421875 L 1295.152344 1936.349609 C 1294.849609 1936.681641 1294.46875 1936.779297 1294.068359 1936.378906 L 1293.101563 1935.412109 Z"/>
                </g>
                <text id="Exporting" xml:space="preserve" x="1289" y="1953" font-family="Helvetica" font-size="13" font-weight="700" fill="#000000">Exporting</text>
                <text id="Symbols-should-be-outlined" xml:space="preserve" x="1289" y="1971" font-family="Helvetica" font-size="13" fill="#000000">Symbols should be outlined when exporting to ensure the</text>
                <text id="design-is-preserved-when" xml:space="preserve" x="1289" y="1989" font-family="Helvetica" font-size="13" fill="#000000">design is preserved when submitting to Xcode.</text>
                <text id="template-version" xml:space="preserve" x="2952" y="1933" font-family="Helvetica" font-size="13" fill="#000000">Template v.1.0</text>
                <text id="Generated-from-circle" xml:space="preserve" x="2911" y="1951" font-family="Helvetica" font-size="13" fill="#000000">Generated from circle</text>
                <text id="Typeset-at-100-points" xml:space="preserve" x="2912" y="1969" font-family="Helvetica" font-size="13" fill="#000000">Typeset at 100 points</text>
                <text id="Small" xml:space="preserve" x="263" y="726" font-family="Helvetica" font-size="13" fill="#000000">Small</text>
                <text id="text1" xml:space="preserve" x="263" y="1156" font-family="Helvetica" font-size="13" fill="#000000">Medium</text>
                <text id="Large" xml:space="preserve" x="263" y="1586" font-family="Helvetica" font-size="13" fill="#000000">Large</text>
            </g>
            <g id="Guides">
                <g id="H-reference">
                    <path id="path7" fill="#27aae1" stroke="none" d="M 393.93161 696 L 396.666016 696 L 369.566406 625.541016 L 367.076202 625.541016 L 339.976563 696 L 342.662109 696 L 351.939514 671.537109 L 384.703094 671.537109 L 393.93161 696 Z M 368.199188 628.910156 L 368.44339 628.910156 L 383.824188 669.291016 L 352.81839 669.291016 L 368.199188 628.910156 Z"/>
                </g>
                <path id="Baseline-S" fill="none" stroke="#27aae1" stroke-width="0.577" d="M 263 696 L 3036 696"/>
                <path id="Capline-S" fill="none" stroke="#27aae1" stroke-width="0.577" d="M 263 625.541016 L 3036 625.541016"/>
                <g id="g5">
                    <path id="path8" fill="#27aae1" stroke="none" d="M 393.93161 1126 L 396.666016 1126 L 369.566406 1055.541016 L 367.076202 1055.541016 L 339.976563 1126 L 342.662109 1126 L 351.939514 1101.537109 L 384.703094 1101.537109 L 393.93161 1126 Z M 368.199188 1058.910156 L 368.44339 1058.910156 L 383.824188 1099.291016 L 352.81839 1099.291016 L 368.199188 1058.910156 Z"/>
                </g>
                <path id="Baseline-M" fill="none" stroke="#27aae1" stroke-width="0.577" d="M 263 1126 L 3036 1126"/>
                <path id="Capline-M" fill="none" stroke="#27aae1" stroke-width="0.577" d="M 263 1055.540039 L 3036 1055.540039"/>
                <g id="g6">
                    <path id="path9" fill="#27aae1" stroke="none" d="M 393.93161 1556 L 396.666016 1556 L 369.566406 1485.541016 L 367.076202 1485.541016 L 339.976563 1556 L 342.662109 1556 L 351.939514 1531.537109 L 384.703094 1531.537109 L 393.93161 1556 Z M 368.199188 1488.910156 L 368.44339 1488.910156 L 383.824188 1529.291016 L 352.81839 1529.291016 L 368.199188 1488.910156 Z"/>
                </g>
                <path id="Baseline-L" fill="none" stroke="#27aae1" stroke-width="0.577" d="M 263 1556 L 3036 1556"/>
                <path id="Capline-L" fill="none" stroke="#27aae1" stroke-width="0.577" d="M 263 1485.540039 L 3036 1485.540039"/>
                <path id="left-margin" fill="#00aeef" stroke="none" opacity="0.4" d="M 1391.300049 1030.790039 L 1400.040283 1030.790039 L 1400.040283 1150.125977 L 1391.300049 1150.125977 Z"/>
                <path id="right-margin" fill="#00aeef" stroke="none" opacity="0.4" d="M 1499.650024 1030.790039 L 1508.390259 1030.790039 L 1508.390259 1150.125977 L 1499.650024 1150.125977 Z"/>
            </g>
            <path id="path10" fill="#000000" fill-opacity="0.06" stroke="none" d="M 1449.844849 1140.550781 C 1477.090942 1140.550781 1499.650024 1117.992188 1499.650024 1090.746094 C 1499.650024 1063.548828 1477.042236 1040.941406 1449.796143 1040.941406 C 1422.598755 1040.941406 1400.040283 1063.548828 1400.040283 1090.746094 C 1400.040283 1117.992188 1422.647705 1140.550781 1449.844849 1140.550781 Z M 1449.844849 1132.25 C 1426.797974 1132.25 1408.389771 1113.792969 1408.389771 1090.746094 C 1408.389771 1067.748047 1426.749146 1049.242188 1449.796143 1049.242188 C 1472.843018 1049.242188 1491.300049 1067.748047 1491.349121 1090.746094 C 1491.397949 1113.792969 1472.891846 1132.25 1449.844849 1132.25 Z"/>
            <g id="Symbols">
                <g id="Regular-M">
                    <path id="Path-3" fill="#000000" stroke="none" d="M 1432 1060 L 1440 1060 C 1442.209106 1060 1444 1058.209106 1444 1056 C 1444 1053.790894 1442.209106 1052 1440 1052 L 1432 1052 C 1429.790894 1052 1428 1053.790894 1428 1056 C 1428 1058.209106 1429.790894 1060 1432 1060 Z M 1452 1060 L 1460 1060 C 1462.209106 1060 1464 1058.209106 1464 1056 C 1464 1053.790894 1462.209106 1052 1460 1052 L 1452 1052 C 1449.790894 1052 1448 1053.790894 1448 1056 C 1448 1058.209106 1449.790894 1060 1452 1060 Z M 1472 1060 L 1474 1060 C 1475.966553 1059.973022 1477.670166 1060.119019 1479.165771 1060.428955 C 1481.328857 1060.877319 1483.445923 1059.487183 1483.894287 1057.323975 C 1484.342651 1055.160889 1482.952393 1053.043823 1480.789307 1052.595459 C 1478.695557 1052.161499 1476.414307 1051.966064 1473.944458 1052.000366 L 1472 1052 C 1469.790894 1052 1468 1053.790894 1468 1056 C 1468 1058.209106 1469.790894 1060 1472 1060 Z M 1486.241699 1065.039307 C 1487.10791 1066.501221 1487.698364 1068.351929 1487.984863 1070.615967 L 1488.038086 1071.074219 C 1488.270874 1073.271118 1490.240479 1074.863281 1492.437378 1074.630493 C 1494.634155 1074.397705 1496.226318 1072.428101 1495.99353 1070.231201 C 1495.616333 1066.672119 1494.671265 1063.572021 1493.124023 1060.960938 C 1491.997803 1059.060425 1489.544189 1058.432739 1487.643677 1059.55896 C 1485.743164 1060.685181 1485.115479 1063.138794 1486.241699 1065.039307 Z M 1487.065308 1081.1073 C 1486.361328 1082.891113 1485.346069 1084.185059 1483.972656 1085.093994 L 1483.71106 1085.26001 C 1481.822754 1086.406616 1481.221558 1088.866821 1482.368164 1090.755127 C 1483.514771 1092.643433 1485.974976 1093.244629 1487.863281 1092.098022 C 1490.898682 1090.254883 1493.131836 1087.52832 1494.506836 1084.043823 C 1495.317749 1081.988892 1494.309204 1079.665649 1492.254272 1078.854736 C 1490.26355 1078.069214 1488.021118 1078.991089 1487.14563 1080.917725 L 1487.065308 1081.1073 Z M 1474.322021 1086.759033 C 1474.208252 1086.749878 1474.094238 1086.745605 1473.980103 1086.746094 L 1465.984253 1086.786011 C 1463.775146 1086.796997 1461.993164 1088.59668 1462.004028 1090.805786 C 1462.015137 1093.014893 1463.814941 1094.796875 1466.024048 1094.785889 L 1474.019897 1094.746094 L 1474 1090.746094 L 1473.677979 1094.733154 C 1475.883667 1094.911011 1477.812744 1093.27002 1477.990356 1091.067993 C 1478.162598 1088.932739 1476.624756 1087.054077 1474.52356 1086.780273 L 1474.322021 1086.759033 Z M 1453.984375 1086.845703 L 1445.984497 1086.885498 C 1443.775391 1086.896484 1441.993408 1088.696289 1442.004395 1090.905396 C 1442.015381 1093.114502 1443.815186 1094.896484 1446.024292 1094.885498 L 1454.02417 1094.845581 C 1456.233276 1094.834595 1458.015259 1093.03479 1458.004272 1090.825684 C 1457.993164 1088.616577 1456.193481 1086.834717 1453.984375 1086.845703 Z M 1433.984619 1086.94519 L 1425.984741 1086.985107 C 1423.775635 1086.996094 1421.993652 1088.795898 1422.004639 1091.005005 C 1422.015625 1093.214111 1423.81543 1094.995972 1426.024536 1094.984985 L 1434.024414 1094.94519 C 1436.233521 1094.934204 1438.015503 1093.134399 1438.004517 1090.925293 C 1437.993408 1088.716187 1436.193726 1086.934326 1433.984619 1086.94519 Z M 1412.256592 1090.239624 C 1409.356934 1092.154175 1407.199463 1094.862427 1405.826172 1098.262573 C 1404.998901 1100.311035 1405.98877 1102.642212 1408.037231 1103.469482 C 1410.085571 1104.296753 1412.416748 1103.306885 1413.244019 1101.258545 C 1413.974243 1099.450439 1415.009644 1098.095093 1416.384888 1097.108276 L 1416.664429 1096.915771 C 1418.508057 1095.698608 1419.015869 1093.217407 1417.798584 1091.373779 C 1416.581421 1089.530273 1414.10022 1089.022461 1412.256592 1090.239624 Z M 1404.113403 1111.990112 C 1404.396729 1115.581787 1405.214966 1118.690552 1406.610229 1121.298462 C 1407.652344 1123.246338 1410.076172 1123.980713 1412.024048 1122.938599 C 1413.90918 1121.930054 1414.657593 1119.627441 1413.759399 1117.7146 L 1413.664185 1117.524658 C 1412.829346 1115.964233 1412.290161 1113.915771 1412.088623 1111.361084 C 1411.914917 1109.158813 1409.98877 1107.514282 1407.786499 1107.687988 C 1405.584229 1107.861694 1403.939697 1109.787842 1404.113403 1111.990112 Z M 1419.24939 1129.744629 C 1420.425415 1129.913452 1421.658813 1129.997803 1422.949707 1130 L 1427.853882 1130 C 1430.062988 1130 1431.853882 1128.209229 1431.853882 1126 C 1431.853882 1123.790894 1430.06311 1122 1427.853882 1122 L 1422.956299 1122 C 1422.03833 1121.998413 1421.179199 1121.939697 1420.385864 1121.825806 C 1418.199097 1121.511963 1416.171997 1123.030273 1415.858154 1125.217041 C 1415.544312 1127.403809 1417.062622 1129.430908 1419.24939 1129.744629 Z M 1439.853882 1130 L 1447.853882 1130 C 1450.062988 1130 1451.853882 1128.209106 1451.853882 1126 C 1451.853882 1123.790894 1450.062988 1122 1447.853882 1122 L 1439.853882 1122 C 1437.644775 1122 1435.853882 1123.790894 1435.853882 1126 C 1435.853882 1128.209106 1437.644775 1130 1439.853882 1130 Z M 1459.853882 1130 L 1467.853882 1130 C 1470.062988 1130 1471.853882 1128.209106 1471.853882 1126 C 1471.853882 1123.790894 1470.062988 1122 1467.853882 1122 L 1459.853882 1122 C 1457.644775 1122 1455.853882 1123.790894 1455.853882 1126 C 1455.853882 1128.209106 1457.644775 1130 1459.853882 1130 Z"/>
                    <path id="Oval" fill="#000000" fill-rule="evenodd" stroke="none" d="M 1424 1055 C 1424 1061.627441 1418.627441 1067 1412 1067 C 1405.372559 1067 1400 1061.627441 1400 1055 C 1400 1048.372559 1405.372559 1043 1412 1043 C 1418.627441 1043 1424 1048.372559 1424 1055 Z"/>
                    <path id="path11" fill="#000000" fill-rule="evenodd" stroke="none" d="M 1500 1125 C 1500 1131.627441 1494.627441 1137 1488 1137 C 1481.372559 1137 1476 1131.627441 1476 1125 C 1476 1118.372559 1481.372559 1113 1488 1113 C 1494.627441 1113 1500 1118.372559 1500 1125 Z"/>
                </g>
            </g>
        </g>
    </g>
</svg>
