<svg width="24" height="24" viewBox="0 0 24 24" fill="none" xmlns="http://www.w3.org/2000/svg">
<rect x="1.75" y="1.75" width="20.5" height="20.5" rx="0.75" fill="#285EA8" stroke="#285EA8" stroke-width="1.5"/>
<path d="M6.39062 20V4H12.7031C13.9167 4 14.9505 4.23177 15.8047 4.69531C16.6589 5.15365 17.3099 5.79167 17.7578 6.60937C18.2109 7.42187 18.4375 8.35937 18.4375 9.42187C18.4375 10.4844 18.2083 11.4219 17.75 12.2344C17.2917 13.0469 16.6276 13.6797 15.7578 14.1328C14.8932 14.5859 13.8464 14.8125 12.6172 14.8125H8.59375V12.1016H12.0703C12.7214 12.1016 13.2578 11.9896 13.6797 11.7656C14.1068 11.5365 14.4245 11.2214 14.6328 10.8203C14.8464 10.4141 14.9531 9.94792 14.9531 9.42187C14.9531 8.89062 14.8464 8.42708 14.6328 8.03125C14.4245 7.63021 14.1068 7.32031 13.6797 7.10156C13.2526 6.8776 12.7109 6.76562 12.0547 6.76562H9.77344V20H6.39062Z" fill="white"/>
</svg>
