<svg width="24" height="24" viewBox="0 0 24 24" fill="none" xmlns="http://www.w3.org/2000/svg">
<rect x="1" y="1" width="22" height="22" rx="1.5" fill="#279215" style="color:#279215"/>
<path d="M19.8 11.619H13.4V5.14286C13.4 4.51429 12.86 4 12.2 4H11.8C11.14 4 10.6 4.51429 10.6 5.14286V11.1048L4.88 5.82857C4.72 5.67619 4.46 5.69524 4.32 5.82857C4.18 5.9619 4.16 6.22857 4.32 6.3619L10.02 11.619H4.2C3.54 11.619 3 12.1333 3 12.7619V13.1429C3 13.7714 3.54 14.2857 4.2 14.2857H4.3L4.76 15.9048L5.3 17.8095L5.68 19.1429C5.82 19.6381 6.3 20 6.84 20H17.22C17.76 20 18.24 19.6571 18.38 19.1429L18.76 17.8095L19.3 15.9048L19.76 14.2857H19.8C20.46 14.2857 21 13.7714 21 13.1429V12.7619C21 12.1333 20.46 11.619 19.8 11.619ZM11.4 5.14286C11.4 4.93333 11.58 4.7619 11.8 4.7619H12.2C12.42 4.7619 12.6 4.93333 12.6 5.14286V11.619H11.4V5.14286ZM8 19.2381H6.82C6.64 19.2381 6.48 19.1238 6.44 18.9524L6.18 18.0952H8V19.2381ZM8 17.3333H5.98L5.66 16.1905H8V17.3333ZM8 15.4286H5.44L5.12 14.2857H8V15.4286ZM11.6 19.2381H8.8V18.0952H11.6V19.2381ZM11.6 17.3333H8.8V16.1905H11.6V17.3333ZM11.6 15.4286H8.8V14.2857H11.6V15.4286ZM15.2 19.2381H12.4V18.0952H15.2V19.2381ZM15.2 17.3333H12.4V16.1905H15.2V17.3333ZM15.2 15.4286H12.4V14.2857H15.2V15.4286ZM17.58 18.9524C17.54 19.1238 17.38 19.2381 17.2 19.2381H16V18.0952H17.82L17.58 18.9524ZM18.02 17.3333H16V16.1905H18.34L18.02 17.3333ZM18.56 15.4286H16V14.2857H18.88L18.56 15.4286ZM20.2 13.1429C20.2 13.3524 20.02 13.5238 19.8 13.5238H4.2C3.98 13.5238 3.8 13.3524 3.8 13.1429V12.7619C3.8 12.5524 3.98 12.381 4.2 12.381H19.8C20.02 12.381 20.2 12.5524 20.2 12.7619V13.1429Z" fill="white"/>
</svg>
