<svg height='100px' width='100px'  fill="#000000" xmlns:x="http://ns.adobe.com/Extensibility/1.0/" xmlns:i="http://ns.adobe.com/AdobeIllustrator/10.0/" xmlns:graph="http://ns.adobe.com/Graphs/1.0/" xmlns="http://www.w3.org/2000/svg" xmlns:xlink="http://www.w3.org/1999/xlink" version="1.1" x="0px" y="0px" viewBox="0 0 100 100" style="enable-background:new 0 0 100 100;" xml:space="preserve"><g><g i:extraneous="self"><g><path d="M45.9,34.5l7.4,7.4c3.4-0.4,6.1-3.3,6.1-6.7c0-3.7-3-6.8-6.8-6.8C49.2,28.4,46.3,31.1,45.9,34.5z"></path><path d="M84.5,22.4c2.5,0,4.6,2.1,4.6,4.6v23.9L76.3,39.1c-1.6-1.5-4.1-1.5-5.7,0.1l-10.3,9.8l32,32c2.1-2,3.3-4.8,3.3-7.8V26.9     c0-6.1-4.9-11.1-11.1-11.1H27.3l6.5,6.5H84.5z"></path><path d="M96.5,91.9L8.1,3.5c-1.3-1.3-3.3-1.3-4.6,0s-1.3,3.3,0,4.6l8.4,8.4C7.5,18,4.4,22.1,4.4,26.9v46.2     c0,6.1,5,11.1,11.1,11.1h64.1l12.4,12.4c0.6,0.6,1.5,1,2.3,1s1.7-0.3,2.3-1C97.8,95.3,97.8,93.2,96.5,91.9z M44,64.4l-1.3-1.2     l-0.9-0.8l-1.4-1.2L33,54.3c-1.8-1.7-4.6-1.7-6.4,0L10.9,68.8V26.9c0-2.5,2.1-4.6,4.6-4.6h2.3l34.4,34.4L44,64.4z"></path></g></g></g></svg>