<?xml version="1.0" encoding="UTF-8"?>
<!-- Generated by Pixelmator Pro 3.7.1 -->
<svg width="3300" height="2200" viewBox="0 0 3300 2200" xmlns="http://www.w3.org/2000/svg">
    <g id="Notes">
        <path id="artboard" fill="#ffffff" stroke="none" d="M 12 -7 L 3312 -7 L 3312 2193 L 12 2193 Z"/>
        <path id="Trac" fill="none" stroke="#000000" stroke-width="0.5" d="M 275 285 L 3048 285"/>
        <text id="WeightScale-Variations" xml:space="preserve" x="274" y="317" font-family="Helvetica" font-size="13" font-weight="700" fill="#000000">Weight/Scale Variations</text>
        <text id="Ultralight" xml:space="preserve" x="544.352295" y="317" font-family="Helvetica" font-size="13" fill="#000000">Ultralight</text>
        <text id="Thin" xml:space="preserve" x="853.355469" y="317" font-family="Helvetica" font-size="13" fill="#000000">Thin</text>
        <text id="Light" xml:space="preserve" x="1149.905029" y="317" font-family="Helvetica" font-size="13" fill="#000000">Light</text>
        <text id="Regular" xml:space="preserve" x="1437.237305" y="317" font-family="Helvetica" font-size="13" fill="#000000">Regular</text>
        <text id="Medium" xml:space="preserve" x="1733.881836" y="317" font-family="Helvetica" font-size="13" fill="#000000">Medium</text>
        <text id="Semibold" xml:space="preserve" x="2026.901855" y="317" font-family="Helvetica" font-size="13" fill="#000000">Semibold</text>
        <text id="Bold" xml:space="preserve" x="2336.990479" y="317" font-family="Helvetica" font-size="13" fill="#000000">Bold</text>
        <text id="Heavy" xml:space="preserve" x="2628.575928" y="317" font-family="Helvetica" font-size="13" fill="#000000">Heavy</text>
        <text id="Black" xml:space="preserve" x="2927.105469" y="317" font-family="Helvetica" font-size="13" fill="#000000">Black</text>
        <path id="path1" fill="none" stroke="#000000" stroke-width="0.5" d="M 275 1896 L 3048 1896"/>
        <g id="Associer">
            <path id="path2" fill="#000000" stroke="none" d="M 284.248047 1926.830078 C 288.603516 1926.830078 292.138672 1923.304688 292.138672 1918.949219 C 292.138672 1914.59375 288.603516 1911.068359 284.248047 1911.068359 C 279.902344 1911.068359 276.367188 1914.59375 276.367188 1918.949219 C 276.367188 1923.304688 279.902344 1926.830078 284.248047 1926.830078 Z M 284.248047 1925.345703 C 280.712891 1925.345703 277.861328 1922.484375 277.861328 1918.949219 C 277.861328 1915.414063 280.712891 1912.552734 284.248047 1912.552734 C 287.783203 1912.552734 290.644531 1915.414063 290.644531 1918.949219 C 290.644531 1922.484375 287.783203 1925.345703 284.248047 1925.345703 Z M 284.970703 1921.791016 L 284.970703 1916.097656 C 284.970703 1915.648438 284.677734 1915.345703 284.228516 1915.345703 C 283.798828 1915.345703 283.505859 1915.648438 283.505859 1916.097656 L 283.505859 1921.791016 C 283.505859 1922.230469 283.798828 1922.533203 284.228516 1922.533203 C 284.677734 1922.533203 284.970703 1922.230469 284.970703 1921.791016 Z M 281.40625 1919.671875 L 287.089844 1919.671875 C 287.529297 1919.671875 287.832031 1919.378906 287.832031 1918.949219 C 287.832031 1918.509766 287.529297 1918.207031 287.089844 1918.207031 L 281.40625 1918.207031 C 280.957031 1918.207031 280.654297 1918.509766 280.654297 1918.949219 C 280.654297 1919.378906 280.957031 1919.671875 281.40625 1919.671875 Z"/>
        </g>
        <g id="g1">
            <path id="path3" fill="#000000" stroke="none" d="M 305.214966 1928.910156 C 310.713013 1928.910156 315.175934 1924.447266 315.175934 1918.949219 C 315.175934 1913.451172 310.713013 1908.988281 305.214966 1908.988281 C 299.716949 1908.988281 295.254028 1913.451172 295.254028 1918.949219 C 295.254028 1924.447266 299.716949 1928.910156 305.214966 1928.910156 Z M 305.214966 1927.25 C 300.625153 1927.25 296.914215 1923.539063 296.914215 1918.949219 C 296.914215 1914.359375 300.625153 1910.648438 305.214966 1910.648438 C 309.80481 1910.648438 313.515747 1914.359375 313.515747 1918.949219 C 313.515747 1923.539063 309.80481 1927.25 305.214966 1927.25 Z M 306.025513 1922.630859 L 306.025513 1915.248047 C 306.025513 1914.75 305.683716 1914.408203 305.195435 1914.408203 C 304.716919 1914.408203 304.384888 1914.75 304.384888 1915.248047 L 304.384888 1922.630859 C 304.384888 1923.119141 304.716919 1923.460938 305.195435 1923.460938 C 305.683716 1923.460938 306.025513 1923.128906 306.025513 1922.630859 Z M 301.513794 1919.75 L 308.906372 1919.75 C 309.394653 1919.75 309.73645 1919.427734 309.73645 1918.949219 C 309.73645 1918.460938 309.394653 1918.119141 308.906372 1918.119141 L 301.513794 1918.119141 C 301.015747 1918.119141 300.683716 1918.460938 300.683716 1918.949219 C 300.683716 1919.427734 301.015747 1919.75 301.513794 1919.75 Z"/>
        </g>
        <g id="g2">
            <path id="path4" fill="#000000" stroke="none" d="M 331.894714 1931.664063 C 338.916168 1931.664063 344.619293 1925.970703 344.619293 1918.949219 C 344.619293 1911.927734 338.916168 1906.224609 331.894714 1906.224609 C 324.87323 1906.224609 319.179871 1911.927734 319.179871 1918.949219 C 319.179871 1925.970703 324.87323 1931.664063 331.894714 1931.664063 Z M 331.894714 1929.847656 C 325.869293 1929.847656 320.996246 1924.974609 320.996246 1918.949219 C 320.996246 1912.923828 325.869293 1908.050781 331.894714 1908.050781 C 337.920105 1908.050781 342.793152 1912.923828 342.793152 1918.949219 C 342.793152 1924.974609 337.920105 1929.847656 331.894714 1929.847656 Z M 332.783386 1923.783203 L 332.783386 1914.085938 C 332.783386 1913.539063 332.412292 1913.158203 331.875153 1913.158203 C 331.357605 1913.158203 330.986481 1913.539063 330.986481 1914.085938 L 330.986481 1923.783203 C 330.986481 1924.320313 331.357605 1924.701172 331.875153 1924.701172 C 332.412292 1924.701172 332.783386 1924.330078 332.783386 1923.783203 Z M 327.041199 1919.828125 L 336.738464 1919.828125 C 337.275574 1919.828125 337.656433 1919.466797 337.656433 1918.949219 C 337.656433 1918.402344 337.285339 1918.03125 336.738464 1918.03125 L 327.041199 1918.03125 C 326.494324 1918.03125 326.12323 1918.402344 326.12323 1918.949219 C 326.12323 1919.466797 326.494324 1919.828125 327.041199 1919.828125 Z"/>
        </g>
        <text id="Design-Variations" xml:space="preserve" x="274" y="1948" font-family="Helvetica" font-size="13" font-weight="700" fill="#000000">Design Variations</text>
        <text id="Symbols-are-supported-in" xml:space="preserve" x="274" y="1966" font-family="Helvetica" font-size="13" fill="#000000">Symbols are supported in up to nine weights and three scales.</text>
        <text id="For-optimal-layout-with" xml:space="preserve" x="274" y="1984" font-family="Helvetica" font-size="13" fill="#000000">For optimal layout with text and other symbols, vertically align</text>
        <text id="symbols-with-the-adjacent" xml:space="preserve" x="274" y="2002" font-family="Helvetica" font-size="13" fill="#000000">symbols with the adjacent text.</text>
        <path id="path5" fill="none" stroke="#00aeef" stroke-width="0.5" d="M 788 1912 L 788 1926"/>
        <g id="g3">
            <path id="path6" fill="#000000" stroke="none" d="M 791.310547 1926.15625 C 791.828125 1926.15625 792.082031 1925.960938 792.267578 1925.414063 L 796.378906 1913.910156 L 796.427734 1913.910156 L 800.548828 1925.414063 C 800.734375 1925.960938 800.988281 1926.15625 801.496094 1926.15625 C 802.013672 1926.15625 802.345703 1925.84375 802.345703 1925.355469 C 802.345703 1925.189453 802.316406 1925.033203 802.238281 1924.828125 L 797.658203 1912.630859 C 797.433594 1912.035156 797.033203 1911.732422 796.408203 1911.732422 C 795.802734 1911.732422 795.392578 1912.025391 795.177734 1912.621094 L 790.597656 1924.837891 C 790.519531 1925.042969 790.490234 1925.199219 790.490234 1925.365234 C 790.490234 1925.853516 790.802734 1926.15625 791.310547 1926.15625 Z M 793.351563 1921.966797 L 799.484375 1921.966797 C 799.884766 1921.966797 800.216797 1921.634766 800.216797 1921.234375 C 800.216797 1920.824219 799.884766 1920.501953 799.484375 1920.501953 L 793.351563 1920.501953 C 792.951172 1920.501953 792.619141 1920.824219 792.619141 1921.234375 C 792.619141 1921.634766 792.951172 1921.966797 793.351563 1921.966797 Z"/>
        </g>
        <path id="path7" fill="none" stroke="#00aeef" stroke-width="0.5" d="M 804.835999 1912 L 804.835999 1926"/>
        <text id="Margins" xml:space="preserve" x="787" y="1948" font-family="Helvetica" font-size="13" font-weight="700" fill="#000000">Margins</text>
        <text id="Leading-and-trailing-margins" xml:space="preserve" x="787" y="1966" font-family="Helvetica" font-size="13" fill="#000000">Leading and trailing margins on the left and right side of each symbol</text>
        <text id="can-be-adjusted-by" xml:space="preserve" x="787" y="1984" font-family="Helvetica" font-size="13" fill="#000000">can be adjusted by modifying the x-location of the margin guidelines.</text>
        <text id="Modifications-are-automatically-applied" xml:space="preserve" x="787" y="2002" font-family="Helvetica" font-size="13" fill="#000000">Modifications are automatically applied proportionally to all</text>
        <text id="scales-and-weights" xml:space="preserve" x="787" y="2020" font-family="Helvetica" font-size="13" fill="#000000">scales and weights.</text>
        <g id="g4">
            <path id="path8" fill="#000000" stroke="none" d="M 1303.841797 1928.626953 L 1305.414063 1930.199219 C 1306.273438 1931.078125 1307.279297 1931.019531 1308.1875 1929.994141 L 1320.326172 1916.351563 L 1319.349609 1915.375 L 1307.298828 1928.910156 C 1306.9375 1929.300781 1306.605469 1929.398438 1306.136719 1928.929688 L 1305.101563 1927.904297 C 1304.642578 1927.445313 1304.740234 1927.113281 1305.140625 1926.742188 L 1318.636719 1914.310547 L 1317.660156 1913.34375 L 1304.046875 1925.863281 C 1303.050781 1926.78125 1302.982422 1927.757813 1303.841797 1928.626953 Z M 1312.816406 1909.134766 C 1312.40625 1909.535156 1312.367188 1910.111328 1312.601563 1910.492188 C 1312.826172 1910.853516 1313.294922 1911.097656 1313.919922 1910.941406 C 1315.091797 1910.609375 1316.439453 1910.462891 1317.699219 1911.126953 L 1317.162109 1912.552734 C 1316.839844 1913.353516 1317.015625 1913.929688 1317.503906 1914.4375 L 1319.554688 1916.498047 C 1320.023438 1916.976563 1320.462891 1916.986328 1320.970703 1916.888672 L 1321.859375 1916.742188 L 1322.376953 1917.25 L 1322.337891 1917.699219 C 1322.318359 1918.158203 1322.445313 1918.558594 1322.894531 1918.998047 L 1323.568359 1919.662109 C 1324.027344 1920.121094 1324.671875 1920.160156 1325.130859 1919.701172 L 1327.728516 1917.09375 C 1328.1875 1916.625 1328.158203 1916.019531 1327.689453 1915.560547 L 1327.005859 1914.876953 C 1326.566406 1914.4375 1326.195313 1914.271484 1325.736328 1914.300781 L 1325.267578 1914.349609 L 1324.779297 1913.861328 L 1324.984375 1912.923828 C 1325.111328 1912.376953 1324.935547 1911.927734 1324.408203 1911.400391 L 1322.152344 1909.164063 C 1319.564453 1906.595703 1315.033203 1906.957031 1312.816406 1909.134766 Z M 1314.232422 1909.544922 C 1315.990234 1908.265625 1319.427734 1908.412109 1320.970703 1909.935547 L 1323.431641 1912.376953 C 1323.636719 1912.582031 1323.675781 1912.738281 1323.617188 1913.041016 L 1323.324219 1914.369141 L 1324.671875 1915.707031 L 1325.550781 1915.658203 C 1325.775391 1915.648438 1325.853516 1915.667969 1326.019531 1915.833984 L 1326.527344 1916.332031 L 1324.359375 1918.5 L 1323.861328 1918.001953 C 1323.695313 1917.826172 1323.666016 1917.757813 1323.675781 1917.523438 L 1323.734375 1916.654297 L 1322.396484 1915.306641 L 1321.029297 1915.541016 C 1320.746094 1915.599609 1320.619141 1915.580078 1320.394531 1915.365234 L 1318.607422 1913.587891 C 1318.392578 1913.382813 1318.373047 1913.246094 1318.509766 1912.914063 L 1319.427734 1910.619141 C 1318.207031 1909.349609 1316.019531 1909.115234 1314.310547 1909.701172 C 1314.173828 1909.75 1314.125 1909.623047 1314.232422 1909.544922 Z"/>
        </g>
        <text id="Exporting" xml:space="preserve" x="1300" y="1948" font-family="Helvetica" font-size="13" font-weight="700" fill="#000000">Exporting</text>
        <text id="Symbols-should-be-outlined" xml:space="preserve" x="1300" y="1966" font-family="Helvetica" font-size="13" fill="#000000">Symbols should be outlined when exporting to ensure the</text>
        <text id="design-is-preserved-when" xml:space="preserve" x="1300" y="1984" font-family="Helvetica" font-size="13" fill="#000000">design is preserved when submitting to Xcode.</text>
        <text id="template-version" xml:space="preserve" x="2961.414063" y="1928" font-family="Helvetica" font-size="13" fill="#000000">Template v.7.0</text>
        <text id="Requires-Xcode-17-or" xml:space="preserve" x="2874.45752" y="1946" font-family="Helvetica" font-size="13" fill="#000000">Requires Xcode 17 or greater</text>
        <text id="Generated-from-pointtopleftdowntopointbottomrightcurvepath" xml:space="preserve" x="2672.836914" y="1964" font-family="Helvetica" font-size="13" fill="#000000">Generated from point.topleft.down.to.point.bottomright.curvepath</text>
        <text id="Typeset-at-1000-points" xml:space="preserve" x="2910.569336" y="1982" font-family="Helvetica" font-size="13" fill="#000000">Typeset at 100.0 points</text>
        <text id="Small" xml:space="preserve" x="274" y="721" font-family="Helvetica" font-size="13" fill="#000000">Small</text>
        <text id="text1" xml:space="preserve" x="274" y="1151" font-family="Helvetica" font-size="13" fill="#000000">Medium</text>
        <text id="Large" xml:space="preserve" x="274" y="1581" font-family="Helvetica" font-size="13" fill="#000000">Large</text>
    </g>
    <g id="Guides">
        <g id="H-reference">
            <path id="path9" fill="#27aae1" stroke="none" d="M 339.993652 696 L 342.637756 696 L 368.328094 628.867676 L 369.030304 628.867676 L 369.030304 625.541016 L 367.122589 625.541016 Z M 350.688507 671.520142 L 385.981506 671.520142 L 385.231506 669.271484 L 351.438507 669.271484 Z M 394.119598 696 L 396.763702 696 L 369.638214 625.541016 L 368.432587 625.541016 L 368.432587 628.867676 Z"/>
        </g>
        <path id="Baseline-S" fill="none" stroke="#27aae1" stroke-width="0.5" d="M 263 696 L 3036 696"/>
        <path id="Capline-S" fill="none" stroke="#27aae1" stroke-width="0.5" d="M 263 625.541016 L 3036 625.541016"/>
        <g id="g5">
            <path id="path10" fill="#27aae1" stroke="none" d="M 339.993652 1126 L 342.637756 1126 L 368.328094 1058.867676 L 369.030304 1058.867676 L 369.030304 1055.541016 L 367.122589 1055.541016 Z M 350.688507 1101.520142 L 385.981506 1101.520142 L 385.231506 1099.271484 L 351.438507 1099.271484 Z M 394.119598 1126 L 396.763702 1126 L 369.638214 1055.541016 L 368.432587 1055.541016 L 368.432587 1058.867676 Z"/>
        </g>
        <path id="Baseline-M" fill="none" stroke="#27aae1" stroke-width="0.5" d="M 263 1126 L 3036 1126"/>
        <path id="Capline-M" fill="none" stroke="#27aae1" stroke-width="0.5" d="M 263 1055.540039 L 3036 1055.540039"/>
        <g id="g6">
            <path id="path11" fill="#27aae1" stroke="none" d="M 339.993652 1556 L 342.637756 1556 L 368.328094 1488.867676 L 369.030304 1488.867676 L 369.030304 1485.541016 L 367.122589 1485.541016 Z M 350.688507 1531.52002 L 385.981506 1531.52002 L 385.231506 1529.271484 L 351.438507 1529.271484 Z M 394.119598 1556 L 396.763702 1556 L 369.638214 1485.541016 L 368.432587 1485.541016 L 368.432587 1488.867676 Z"/>
        </g>
        <path id="Baseline-L" fill="none" stroke="#27aae1" stroke-width="0.5" d="M 263 1556 L 3036 1556"/>
        <path id="Capline-L" fill="none" stroke="#27aae1" stroke-width="0.5" d="M 263 1485.540039 L 3036 1485.540039"/>
        <path id="right-margin-Black-S" fill="none" stroke="#00aeef" stroke-width="0.5" d="M 2981.860107 600.784912 L 2981.860107 720.120972"/>
        <path id="left-margin-Black-S" fill="none" stroke="#00aeef" stroke-width="0.5" d="M 2884.939941 600.784912 L 2884.939941 720.120972"/>
        <path id="right-margin-Regular-S" fill="none" stroke="#00aeef" stroke-width="0.5" d="M 1493.640015 600.784912 L 1493.640015 720.120972"/>
        <path id="left-margin-Regular-S" fill="none" stroke="#00aeef" stroke-width="0.5" d="M 1406.050049 600.784912 L 1406.050049 720.120972"/>
        <path id="right-margin-Ultralight-S" fill="none" stroke="#00aeef" stroke-width="0.5" d="M 601.375977 600.784912 L 601.375977 720.120972"/>
        <path id="left-margin-Ultralight-S" fill="none" stroke="#00aeef" stroke-width="0.5" d="M 518.046997 600.784912 L 518.046997 720.120972"/>
    </g>
    <g id="Symbols">
        <g id="Black-S">
            <path id="Vector-8-copie-4" fill="none" stroke="#000000" stroke-width="0.5" d="M 2903 678.751709 C 2905.948486 680.085693 2908 683.053345 2908 686.5 C 2908 691.194458 2904.194336 695 2899.5 695 C 2894.805664 695 2891 691.194458 2891 686.5 C 2891 683.053345 2893.051514 680.085693 2896 678.751709 L 2896 629.5 C 2896 627.567017 2897.566895 626 2899.5 626 C 2901.433105 626 2903 627.567017 2903 629.5 L 2903 678.751709 Z"/>
            <path id="Vector-8-copie-2" fill="none" stroke="#000000" stroke-width="0.5" d="M 2971 678.751709 C 2973.948486 680.085693 2976 683.053345 2976 686.5 C 2976 691.194458 2972.194336 695 2967.5 695 C 2962.805664 695 2959 691.194458 2959 686.5 C 2959 683.053345 2961.051514 680.085693 2964 678.751709 L 2964 629.5 C 2964 627.567017 2965.566895 626 2967.5 626 C 2969.433105 626 2971 627.567017 2971 629.5 L 2971 678.751709 Z"/>
            <path id="Vector-8-copie-3" fill="none" stroke="#000000" stroke-width="0.5" d="M 2937 678.751709 C 2939.948486 680.085693 2942 683.053345 2942 686.5 C 2942 691.194458 2938.194336 695 2933.5 695 C 2928.805664 695 2925 691.194458 2925 686.5 C 2925 683.053345 2927.051514 680.085693 2930 678.751709 L 2930 629.5 C 2930 627.567017 2931.566895 626 2933.5 626 C 2935.433105 626 2937 627.567017 2937 629.5 L 2937 678.751709 Z"/>
        </g>
        <g id="Regular-S">
            <path id="Vector-8" fill="none" stroke="#000000" stroke-width="0.5" d="M 1420 678.751709 C 1422.948486 680.085693 1425 683.053345 1425 686.5 C 1425 691.194458 1421.194458 695 1416.5 695 C 1411.805542 695 1408 691.194458 1408 686.5 C 1408 683.053345 1410.051514 680.085693 1413 678.751709 L 1413 629.5 C 1413 627.567017 1414.567017 626 1416.5 626 C 1418.432983 626 1420 627.567017 1420 629.5 L 1420 678.751709 Z"/>
            <path id="Vector-8-copie" fill="none" stroke="#000000" stroke-width="0.5" d="M 1488 678.751709 C 1490.948486 680.085693 1493 683.053345 1493 686.5 C 1493 691.194458 1489.194458 695 1484.5 695 C 1479.805542 695 1476 691.194458 1476 686.5 C 1476 683.053345 1478.051514 680.085693 1481 678.751709 L 1481 629.5 C 1481 627.567017 1482.567017 626 1484.5 626 C 1486.432983 626 1488 627.567017 1488 629.5 L 1488 678.751709 Z"/>
            <path id="path12" fill="none" stroke="#000000" stroke-width="0.5" d="M 1454 678.751709 C 1456.948486 680.085693 1459 683.053345 1459 686.5 C 1459 691.194458 1455.194458 695 1450.5 695 C 1445.805542 695 1442 691.194458 1442 686.5 C 1442 683.053345 1444.051514 680.085693 1447 678.751709 L 1447 629.5 C 1447 627.567017 1448.567017 626 1450.5 626 C 1452.432983 626 1454 627.567017 1454 629.5 L 1454 678.751709 Z"/>
        </g>
        <g id="Ultralight-S">
            <path id="path13" fill="none" stroke="#000000" stroke-width="0.5" d="M 530 678.751709 C 532.948547 680.085693 535 683.053345 535 686.5 C 535 691.194458 531.194397 695 526.5 695 C 521.805603 695 518 691.194458 518 686.5 C 518 683.053345 520.051453 680.085693 523 678.751709 L 523 629.5 C 523 627.567017 524.567017 626 526.5 626 C 528.432983 626 530 627.567017 530 629.5 L 530 678.751709 Z"/>
            <path id="path14" fill="none" stroke="#000000" stroke-width="0.5" d="M 598 678.751709 C 600.948547 680.085693 603 683.053345 603 686.5 C 603 691.194458 599.194397 695 594.5 695 C 589.805603 695 586 691.194458 586 686.5 C 586 683.053345 588.051453 680.085693 591 678.751709 L 591 629.5 C 591 627.567017 592.567017 626 594.5 626 C 596.432983 626 598 627.567017 598 629.5 L 598 678.751709 Z"/>
            <path id="path15" fill="none" stroke="#000000" stroke-width="0.5" d="M 564 678.751709 C 566.948547 680.085693 569 683.053345 569 686.5 C 569 691.194458 565.194397 695 560.5 695 C 555.805603 695 552 691.194458 552 686.5 C 552 683.053345 554.051453 680.085693 557 678.751709 L 557 629.5 C 557 627.567017 558.567017 626 560.5 626 C 562.432983 626 564 627.567017 564 629.5 L 564 678.751709 Z"/>
        </g>
    </g>
</svg>
