<?xml version="1.0" encoding="UTF-8"?>
<svg width="451px" height="133px" viewBox="0 0 451 133" version="1.1" xmlns="http://www.w3.org/2000/svg" xmlns:xlink="http://www.w3.org/1999/xlink">
    <title>logo-text</title>
    <g id="logo-text" stroke="none" stroke-width="1" fill="none" fill-rule="evenodd">
        <path d="M161.432373,99 C174.215576,99 181.976807,92.5253906 181.976807,81.9833984 C181.976807,74.0561523 176.290771,68.2041016 168.156006,67.4155273 L168.156006,67.0834961 C174.298584,66.0874023 179.071533,60.484375 179.071533,54.0512695 C179.071533,44.9619141 172.057373,39.1098633 161.18335,39.1098633 L141.676514,39.1098633 C138.356201,39.1098633 136.32251,41.1850586 136.32251,44.6713867 L136.32251,93.4384766 C136.32251,96.9248047 138.356201,99 141.676514,99 L161.432373,99 Z M156.825439,64.3442383 L147.030518,64.3442383 L147.030518,47.4521484 L158.485596,47.4521484 C164.877197,47.4521484 168.488037,50.3989258 168.488037,55.628418 C168.488037,61.1899414 164.296143,64.3442383 156.825439,64.3442383 Z M158.983643,90.6577148 L147.030518,90.6577148 L147.030518,71.9394531 L158.5271,71.9394531 C166.744873,71.9394531 171.061279,75.1352539 171.061279,81.2363281 C171.061279,87.3789062 166.869385,90.6577148 158.983643,90.6577148 Z M208.04126,99.871582 C220.948975,99.871582 229.332764,91.2802734 229.332764,77.0029297 C229.332764,62.7670898 220.865967,54.0927734 208.04126,54.0927734 C195.216553,54.0927734 186.749756,62.8085938 186.749756,77.0029297 C186.749756,91.2802734 195.133545,99.871582 208.04126,99.871582 Z M208.04126,91.6953125 C201.483643,91.6953125 197.250244,86.3828125 197.250244,77.0029297 C197.250244,67.6645508 201.525146,62.3105469 208.04126,62.3105469 C214.598877,62.3105469 218.832275,67.6645508 218.832275,77.0029297 C218.832275,86.3828125 214.598877,91.6953125 208.04126,91.6953125 Z M255.438721,99.871582 C268.346436,99.871582 276.730225,91.2802734 276.730225,77.0029297 C276.730225,62.7670898 268.263428,54.0927734 255.438721,54.0927734 C242.614014,54.0927734 234.147217,62.8085938 234.147217,77.0029297 C234.147217,91.2802734 242.531006,99.871582 255.438721,99.871582 Z M255.438721,91.6953125 C248.881104,91.6953125 244.647705,86.3828125 244.647705,77.0029297 C244.647705,67.6645508 248.922607,62.3105469 255.438721,62.3105469 C261.996338,62.3105469 266.229736,67.6645508 266.229736,77.0029297 C266.229736,86.3828125 261.996338,91.6953125 255.438721,91.6953125 Z M288.849365,99.8300781 C291.87915,99.8300781 293.99585,97.8793945 293.99585,94.3930664 L293.99585,43.7167969 C293.99585,40.2304688 291.87915,38.2797852 288.849365,38.2797852 C285.81958,38.2797852 283.661377,40.2304688 283.661377,43.7167969 L283.661377,94.3930664 C283.661377,97.8793945 285.81958,99.8300781 288.849365,99.8300781 Z M338.322021,99.8300781 C341.310303,99.8300781 343.427002,97.9624023 343.427002,94.6420898 L343.427002,43.7167969 C343.427002,40.2304688 341.268799,38.2797852 338.239014,38.2797852 C335.209229,38.2797852 333.092529,40.2304688 333.092529,43.7167969 L333.092529,62.3935547 L332.843506,62.3935547 C330.519287,57.5375977 325.538818,54.2587891 319.230225,54.2587891 C308.148682,54.2587891 300.968506,63.0576172 300.968506,76.9614258 C300.968506,90.9482422 308.148682,99.7055664 319.230225,99.7055664 C326.036865,99.7055664 330.768311,96.2607422 332.88501,91.1972656 L333.092529,91.1972656 L333.092529,94.6420898 C333.092529,98.0039062 335.33374,99.8300781 338.322021,99.8300781 Z M322.343018,91.2387695 C315.660889,91.2387695 311.552002,85.7602539 311.552002,77.0029297 C311.552002,68.2871094 315.702393,62.7670898 322.343018,62.7670898 C328.859131,62.7670898 333.134033,68.3701172 333.134033,77.0029297 C333.134033,85.71875 328.859131,91.2387695 322.343018,91.2387695 Z M371.649658,99.871582 C380.033447,99.871582 386.591064,96.5927734 389.496338,90.9897461 C389.952881,90.0766602 390.201904,89.1635742 390.201904,88.375 C390.201904,85.8847656 388.375732,84.390625 386.051514,84.390625 C384.598877,84.390625 383.644287,84.847168 382.565186,86.0507812 C379.244873,90.2841797 376.215088,91.902832 371.56665,91.902832 C364.843018,91.902832 360.568115,87.1713867 360.568115,79.8251953 L360.568115,79.4931641 L386.508057,79.4931641 C389.579346,79.4931641 391.32251,77.6669922 391.32251,74.5957031 C391.32251,62.6425781 383.104736,54.0927734 371.068604,54.0927734 C358.368408,54.0927734 350.275146,63.140625 350.275146,77.1689453 C350.275146,91.4462891 358.202393,99.871582 371.649658,99.871582 Z M381.195557,72.6865234 L360.651123,72.6865234 C361.066162,66.3779297 365.299561,62.1030273 371.110107,62.1030273 C376.920654,62.1030273 380.988037,66.2949219 381.195557,72.6865234 Z M403.109619,99.8300781 C406.222412,99.8300781 408.297607,97.7963867 408.297607,94.3930664 L408.297607,73.2260742 C408.297607,67.8720703 410.538818,64.1782227 416.432373,64.1367188 C418.466064,64.0952148 420.001709,63.6386719 420.997803,62.7670898 C422.0354,61.9370117 422.533447,60.7333984 422.533447,59.1147461 C422.533447,57.4130859 422.0354,56.1679688 421.080811,55.3793945 C420.292236,54.6738281 419.047119,54.2587891 417.428467,54.2587891 C413.029053,54.2587891 409.210693,57.5791016 408.00708,62.7255859 L407.799561,62.7255859 L407.799561,59.3637695 C407.799561,56.1264648 405.765869,54.1342773 402.9021,54.1342773 C399.955322,54.1342773 397.963135,56.1264648 397.963135,59.3637695 L397.963135,94.3930664 C397.963135,97.7963867 399.996826,99.8300781 403.109619,99.8300781 Z" id="Boolder" fill="#1A1A1A" fill-rule="nonzero"></path>
        <polygon id="Path-6" stroke="#059669" stroke-width="11" stroke-linejoin="round" points="23.3477174 112.359535 41.7958186 30.9283269 61.9403326 18.3595354 89.8262756 34.5881607 76.768368 64.7007997 91.3477174 82.0203854 81.949503 112.359535"></polygon>
    </g>
</svg>