<?xml version="1.0" encoding="UTF-8"?>
<svg width="3300px" height="2200px" viewBox="0 0 3300 2200" version="1.1" xmlns="http://www.w3.org/2000/svg" xmlns:xlink="http://www.w3.org/1999/xlink">
    <!-- Generator: Sketch 64 (93537) - https://sketch.com -->
    <title>circuit</title>
    <desc>Created with Sketch.</desc>
    <g id="Page-1" stroke="none" stroke-width="1" fill="none" fill-rule="evenodd">
        <g id="circuit">
            <g id="Notes">
                <rect id="artboard" fill="#FFFFFF" fill-rule="nonzero" x="0" y="0" width="3300" height="2200"></rect>
                <line x1="263" y1="292" x2="3036" y2="292" id="Path" stroke="#000000" stroke-width="0.5"></line>
                <text id="Weight/Scale-Variations" fill="#000000" font-family="Helvetica-Bold, Helvetica" font-size="13" font-weight="bold">
                    <tspan x="263" y="322">Weight/Scale Variations</tspan>
                </text>
                <text id="Ultralight" fill="#000000" font-family="Helvetica" font-size="13" font-weight="normal">
                    <tspan x="533.711" y="322">Ultralight</tspan>
                </text>
                <text id="Thin" fill="#000000" font-family="Helvetica" font-size="13" font-weight="normal">
                    <tspan x="843.422" y="322">Thin</tspan>
                </text>
                <text id="Light" fill="#000000" font-family="Helvetica" font-size="13" font-weight="normal">
                    <tspan x="1138.63" y="322">Light</tspan>
                </text>
                <text id="Regular" fill="#000000" font-family="Helvetica" font-size="13" font-weight="normal">
                    <tspan x="1426.84" y="322">Regular</tspan>
                </text>
                <text id="Medium" fill="#000000" font-family="Helvetica" font-size="13" font-weight="normal">
                    <tspan x="1723.06" y="322">Medium</tspan>
                </text>
                <text id="Semibold" fill="#000000" font-family="Helvetica" font-size="13" font-weight="normal">
                    <tspan x="2015.77" y="322">Semibold</tspan>
                </text>
                <text id="Bold" fill="#000000" font-family="Helvetica" font-size="13" font-weight="normal">
                    <tspan x="2326.48" y="322">Bold</tspan>
                </text>
                <text id="Heavy" fill="#000000" font-family="Helvetica" font-size="13" font-weight="normal">
                    <tspan x="2618.19" y="322">Heavy</tspan>
                </text>
                <text id="Black" fill="#000000" font-family="Helvetica" font-size="13" font-weight="normal">
                    <tspan x="2917.4" y="322">Black</tspan>
                </text>
                <line x1="263" y1="1903" x2="3036" y2="1903" id="Path" stroke="#000000" stroke-width="0.5"></line>
                <g id="Group" transform="translate(264.000000, 1918.000000)" fill="#000000" fill-rule="nonzero">
                    <path d="M8.24805,15.830078 C12.5547,15.830078 16.1387,12.25586 16.1387,7.94922 C16.1387,3.6426 12.5449,0.0684 8.23828,0.0684 C3.94141,0.0684 0.36719,3.6426 0.36719,7.94922 C0.36719,12.25586 3.95117,15.830078 8.24805,15.830078 Z M8.24805,14.345703 C4.70312,14.345703 1.87109,11.50391 1.87109,7.94922 C1.87109,4.3945 4.69336,1.5527 8.23828,1.5527 C11.793,1.5527 14.6348,4.3945 14.6445252,7.94922 C14.6543,11.50391 11.8027,14.345703 8.24805,14.345703 Z M8.22852,11.57227 C8.69727,11.57227 8.9707,11.25977 8.9707,10.74219 L8.9707,8.68164 L11.1973,8.68164 C11.6953,8.68164 12.0371,8.42773 12.0371,7.95898 C12.0371,7.48047 11.7148,7.2168 11.1973,7.2168 L8.9707,7.2168 L8.9707,4.9902 C8.9707,4.4727 8.69727,4.1504 8.22852,4.1504 C7.75977,4.1504 7.50586,4.4922 7.50586,4.9902 L7.50586,7.2168 L5.29883,7.2168 C4.78125,7.2168 4.44922,7.48047 4.44922,7.95898 C4.44922,8.42773 4.80078,8.68164 5.29883,8.68164 L7.50586,8.68164 L7.50586,10.74219 C7.50586,11.24023 7.75977,11.57227 8.22852,11.57227 Z" id="Shape"></path>
                </g>
                <g id="Group" transform="translate(282.506000, 1915.000000)" fill="#000000" fill-rule="nonzero">
                    <path d="M10.709,20.91016 C16.1582,20.91016 20.6699,16.39844 20.6699,10.94922 C20.6699,5.5098 16.1484,0.9883 10.6992,0.9883 C5.25977,0.9883 0.74805,5.5098 0.74805,10.94922 C0.74805,16.39844 5.26953,20.91016 10.709,20.91016 Z M10.709,19.25 C6.09961,19.25 2.41797,15.55859 2.41797,10.94922 C2.41797,6.3496 6.08984,2.6484 10.6992,2.6484 C15.3086,2.6484 19,6.3496 19.009819,10.94922 C19.0195,15.55859 15.3184,19.25 10.709,19.25 Z M10.6895,15.58789 C11.207,15.58789 11.5195,15.22656 11.5195,14.66016 L11.5195,11.76953 L14.5762,11.76953 C15.123,11.76953 15.5039,11.48633 15.5039,10.96875 C15.5039,10.44141 15.1426,10.13867 14.5762,10.13867 L11.5195,10.13867 L11.5195,7.0723 C11.5195,6.4961 11.207,6.1445 10.6895,6.1445 C10.1719,6.1445 9.8789,6.5156 9.8789,7.0723 L9.8789,10.13867 L6.83203,10.13867 C6.26562,10.13867 5.89453,10.44141 5.89453,10.96875 C5.89453,11.48633 6.28516,11.76953 6.83203,11.76953 L9.8789,11.76953 L9.8789,14.66016 C9.8789,15.20703 10.1719,15.58789 10.6895,15.58789 Z" id="Shape"></path>
                </g>
                <g id="Group" transform="translate(306.924000, 1913.000000)" fill="#000000" fill-rule="nonzero">
                    <path d="M12.9707,25.67383 C19.9336,25.67383 25.6953,19.921875 25.6953,12.95898 C25.6953,5.9961 19.9238,0.2441 12.9609,0.2441 C6.00781,0.2441 0.25586,5.9961 0.25586,12.95898 C0.25586,19.921875 6.01758,25.67383 12.9707,25.67383 Z M12.9707,23.85742 C6.93555,23.85742 2.08203,18.99414 2.08203,12.95898 C2.08203,6.9238 6.92578,2.0605 12.9609,2.0605 C19.0059,2.0605 23.8594,6.9238 23.8691148,12.95898 C23.8789,18.99414 19.0156,23.85742 12.9707,23.85742 Z M12.9512,18.93555 C13.5176,18.93555 13.8691,18.54492 13.8691,17.93945 L13.8691,13.86719 L18.1074,13.86719 C18.6934,13.86719 19.1133,13.53516 19.1133,12.97852 C19.1133,12.40234 18.7227,12.06055 18.1074,12.06055 L13.8691,12.06055 L13.8691,7.8125 C13.8691,7.1973 13.5176,6.8066 12.9512,6.8066 C12.3848,6.8066 12.0625,7.2168 12.0625,7.8125 L12.0625,12.06055 L7.83398,12.06055 C7.21875,12.06055 6.80859,12.40234 6.80859,12.97852 C6.80859,13.53516 7.23828,13.86719 7.83398,13.86719 L12.0625,13.86719 L12.0625,17.93945 C12.0625,18.52539 12.3848,18.93555 12.9512,18.93555 Z" id="Shape"></path>
                </g>
                <text id="Design-Variations" fill="#000000" font-family="Helvetica-Bold, Helvetica" font-size="13" font-weight="bold">
                    <tspan x="263" y="1953">Design Variations</tspan>
                </text>
                <text id="Symbols-are-supported-in-up-to-nine-weights-and-three-scales." fill="#000000" font-family="Helvetica" font-size="13" font-weight="normal">
                    <tspan x="263" y="1971">Symbols are supported in up to nine weights and three scales.</tspan>
                </text>
                <text id="For-optimal-layout-with-text-and-other-symbols,-vertically-align" fill="#000000" font-family="Helvetica" font-size="13" font-weight="normal">
                    <tspan x="263" y="1989">For optimal layout with text and other symbols, vertically align</tspan>
                </text>
                <text id="symbols-with-the-adjacent-text." fill="#000000" font-family="Helvetica" font-size="13" font-weight="normal">
                    <tspan x="263" y="2007">symbols with the adjacent text.</tspan>
                </text>
                <rect id="Rectangle" fill="#00AEEF" fill-rule="nonzero" opacity="0.4" x="776" y="1919" width="3" height="14"></rect>
                <g id="Group" transform="translate(779.000000, 1918.000000)" fill="#000000" fill-rule="nonzero">
                    <path d="M10.5273,15 L12.373,15 L7.17773,0.9082 L5.43945,0.9082 L0.244141,15 L2.08984,15 L3.50586,10.9668 L9.11133,10.9668 L10.5273,15 Z M6.2793,3.0469 L6.33789,3.0469 L8.59375,9.47266 L4.02344,9.47266 L6.2793,3.0469 Z" id="Shape"></path>
                </g>
                <rect id="Rectangle" fill="#00AEEF" fill-rule="nonzero" opacity="0.4" x="791.617" y="1919" width="3" height="14"></rect>
                <text id="Margins" fill="#000000" font-family="Helvetica-Bold, Helvetica" font-size="13" font-weight="bold">
                    <tspan x="776" y="1953">Margins</tspan>
                </text>
                <text id="Leading-and-trailing-margins-on-the-left-and-right-side-of-each-symbol" fill="#000000" font-family="Helvetica" font-size="13" font-weight="normal">
                    <tspan x="776" y="1971">Leading and trailing margins on the left and right side of each symbol</tspan>
                </text>
                <text id="can-be-adjusted-by-modifying-the-width-of-the-blue-rectangles." fill="#000000" font-family="Helvetica" font-size="13" font-weight="normal">
                    <tspan x="776" y="1989">can be adjusted by modifying the width of the blue rectangles.</tspan>
                </text>
                <text id="Modifications-are-automatically-applied-proportionally-to-all" fill="#000000" font-family="Helvetica" font-size="13" font-weight="normal">
                    <tspan x="776" y="2007">Modifications are automatically applied proportionally to all</tspan>
                </text>
                <text id="scales-and-weights." fill="#000000" font-family="Helvetica" font-size="13" font-weight="normal">
                    <tspan x="776" y="2025">scales and weights.</tspan>
                </text>
                <g id="Group" transform="translate(1291.000000, 1915.000000)" fill="#000000" fill-rule="nonzero">
                    <path d="M0.83203,21.11523 L2.375,22.6582 C3.22461,23.48828 4.19141,23.41992 5.06055,22.46289 L15.2754,11.33984 C15.7051,11.63281 16.0957,11.62305 16.5645,11.52539 L17.6094,11.31055 L18.3027,12.00391 L18.2539,12.52148 C18.1855,13.04883 18.3516,13.46875 18.8496,13.9668 L19.6602,14.77734 C20.168,15.28516 20.8223,15.31445 21.3008,14.83594 L24.5527,11.58398 C25.0312,11.10547 25.0117,10.45117 24.5039,9.94336 L23.6836,9.12305 C23.1855,8.625 22.7754,8.44922 22.2383,8.52734 L21.7109,8.58594 L21.0566,7.9219 L21.3398,6.7793 C21.4863,6.2129 21.3398,5.7441 20.7148,5.1387 L18.3027,2.7461 C14.7578,-0.7793 10.2266,-0.6719 7.11133,2.4629 C6.69141,2.8926 6.64258,3.4785 6.91602,3.9082 C7.15039,4.2793 7.62891,4.5039 8.2734,4.3379 C9.7871,3.957 11.3008,4.0742 12.7852,5.0801 L12.1602,6.6621 C11.9258,7.248 11.9453,7.7266 12.1797,8.16602 L1.01758,18.439453 C0.08008,19.30859 -0.02734,20.25586 0.83203,21.11523 Z M8.6738,2.8535 C11.3398,0.8613 14.6504,1.1738 17.0527,3.5859 L19.6797,6.1934 C19.9141,6.4277 19.9434,6.6133 19.8848,6.9062 L19.5039,8.46875 L21.0762,10.04102 L22.043,9.95312 C22.3262,9.92383 22.4141,9.94336 22.6387,10.16797 L23.2637,10.79297 L20.5098,13.53711 L19.8848,12.92188 C19.6602,12.69727 19.6406,12.59961 19.6699,12.31641 L19.7578,11.35938 L18.1953,9.79688 L16.5742,10.10938 C16.291,10.16797 16.1445,10.16797 15.9102,9.92383 L13.7324,7.7461 C13.5078,7.5117 13.4785,7.375 13.6055,7.0527 L14.5527,4.7773 C12.9512,3.2441 10.8418,2.3945 8.8008,3.0488 C8.7129,3.0781 8.6445,3.0586 8.6152,3.0195 C8.5859,2.9707 8.5859,2.9219 8.6738,2.8535 Z M2.10156,20.41211 C1.61328,19.91406 1.78906,19.61133 2.12109,19.30859 L13.0781,9.19141 L14.3086,10.42188 L4.15234,21.34961 C3.84961,21.68164 3.46875,21.7793 3.06836,21.37891 L2.10156,20.41211 Z" id="Shape"></path>
                </g>
                <text id="Exporting" fill="#000000" font-family="Helvetica-Bold, Helvetica" font-size="13" font-weight="bold">
                    <tspan x="1289" y="1953">Exporting</tspan>
                </text>
                <text id="Symbols-should-be-outlined-when-exporting-to-ensure-the" fill="#000000" font-family="Helvetica" font-size="13" font-weight="normal">
                    <tspan x="1289" y="1971">Symbols should be outlined when exporting to ensure the</tspan>
                </text>
                <text id="design-is-preserved-when-submitting-to-Xcode." fill="#000000" font-family="Helvetica" font-size="13" font-weight="normal">
                    <tspan x="1289" y="1989">design is preserved when submitting to Xcode.</tspan>
                </text>
                <text id="template-version" fill="#000000" font-family="Helvetica" font-size="13" font-weight="normal">
                    <tspan x="2952" y="1933">Template v.1.0</tspan>
                </text>
                <text id="Generated-from-circle" fill="#000000" font-family="Helvetica" font-size="13" font-weight="normal">
                    <tspan x="2911" y="1951">Generated from circle</tspan>
                </text>
                <text id="Typeset-at-100-points" fill="#000000" font-family="Helvetica" font-size="13" font-weight="normal">
                    <tspan x="2912" y="1969">Typeset at 100 points</tspan>
                </text>
                <text id="Small" fill="#000000" font-family="Helvetica" font-size="13" font-weight="normal">
                    <tspan x="263" y="726">Small</tspan>
                </text>
                <text id="Medium" fill="#000000" font-family="Helvetica" font-size="13" font-weight="normal">
                    <tspan x="263" y="1156">Medium</tspan>
                </text>
                <text id="Large" fill="#000000" font-family="Helvetica" font-size="13" font-weight="normal">
                    <tspan x="263" y="1586">Large</tspan>
                </text>
            </g>
            <g id="Guides" transform="translate(263.000000, 625.000000)">
                <g id="H-reference" transform="translate(76.000000, 0.000000)" fill="#27AAE1" fill-rule="nonzero">
                    <path d="M54.9316,71 L57.666,71 L30.5664,0.541 L28.0762,0.541 L0.976562,71 L3.66211,71 L12.9395,46.5371 L45.7031,46.5371 L54.9316,71 Z M29.1992,3.9102 L29.4434,3.9102 L44.8242,44.291 L13.8184,44.291 L29.1992,3.9102 Z" id="Shape"></path>
                </g>
                <line x1="0" y1="71" x2="2773" y2="71" id="Baseline-S" stroke="#27AAE1" stroke-width="0.577"></line>
                <line x1="0" y1="0.541" x2="2773" y2="0.541" id="Capline-S" stroke="#27AAE1" stroke-width="0.577"></line>
                <g id="H-reference" transform="translate(76.000000, 430.000000)" fill="#27AAE1" fill-rule="nonzero">
                    <path d="M54.9316,71 L57.666,71 L30.5664,0.541 L28.0762,0.541 L0.976562,71 L3.66211,71 L12.9395,46.5371 L45.7031,46.5371 L54.9316,71 Z M29.1992,3.9102 L29.4434,3.9102 L44.8242,44.291 L13.8184,44.291 L29.1992,3.9102 Z" id="Shape"></path>
                </g>
                <line x1="0" y1="501" x2="2773" y2="501" id="Baseline-M" stroke="#27AAE1" stroke-width="0.577"></line>
                <line x1="0" y1="430.54" x2="2773" y2="430.54" id="Capline-M" stroke="#27AAE1" stroke-width="0.577"></line>
                <g id="H-reference" transform="translate(76.000000, 860.000000)" fill="#27AAE1" fill-rule="nonzero">
                    <path d="M54.9316,71 L57.666,71 L30.5664,0.541 L28.0762,0.541 L0.976562,71 L3.66211,71 L12.9395,46.5371 L45.7031,46.5371 L54.9316,71 Z M29.1992,3.9102 L29.4434,3.9102 L44.8242,44.291 L13.8184,44.291 L29.1992,3.9102 Z" id="Shape"></path>
                </g>
                <line x1="0" y1="931" x2="2773" y2="931" id="Baseline-L" stroke="#27AAE1" stroke-width="0.577"></line>
                <line x1="0" y1="860.54" x2="2773" y2="860.54" id="Capline-L" stroke="#27AAE1" stroke-width="0.577"></line>
                <rect id="left-margin" fill="#00AEEF" fill-rule="nonzero" opacity="0.4" x="1128.3" y="405.79" width="8.74023" height="119.336"></rect>
                <rect id="right-margin" fill="#00AEEF" fill-rule="nonzero" opacity="0.4" x="1236.65" y="405.79" width="8.74023" height="119.336"></rect>
            </g>
            <path d="M1449.8449,1140.5508 C1477.091,1140.5508 1499.65,1117.99219 1499.65,1090.7461 C1499.65,1063.5488 1477.0422,1040.9414 1449.7961,1040.9414 C1422.5988,1040.9414 1400.04023,1063.5488 1400.04023,1090.7461 C1400.04023,1117.99219 1422.6477,1140.5508 1449.8449,1140.5508 Z M1449.8449,1132.25 C1426.798,1132.25 1408.3898,1113.793 1408.3898,1090.7461 C1408.3898,1067.748 1426.7492,1049.2422 1449.7961,1049.2422 C1472.843,1049.2422 1491.3,1067.748 1491.3491,1090.7461 C1491.398,1113.793 1472.8918,1132.25 1449.8449,1132.25 Z" id="Shape" fill-opacity="0.06" fill="#000000" fill-rule="nonzero"></path>
            <g id="Symbols" transform="translate(498.000000, 618.000000)" fill="#000000">
                <g id="Regular-M" transform="translate(901.300000, 425.000000)">
                    <g id="noun_path_2021909" opacity="0.112885975" transform="translate(6.700000, 4.000000)" fill-rule="nonzero">
                        <polygon id="Path" points="2.70363289 18 9 11.7036329 15.2963671 18 18 15.2963671 11.7036329 9 18 2.70363289 15.2963671 0 9 6.29636711 2.70363289 0 0 2.70363289 6.29636711 9 0 15.2963671"></polygon>
                        <polygon id="Path" points="70 72.7036329 76.2963671 79 70 85.2963671 72.7036329 88 79 81.7036329 85.2963671 88 88 85.2963671 81.7036329 79 88 72.7036329 85.2963671 70 79 76.2963671 72.7036329 70"></polygon>
                        <rect id="Rectangle" x="32" y="7" width="6" height="4"></rect>
                        <rect id="Rectangle" x="33" y="77" width="6" height="4"></rect>
                        <rect id="Rectangle" x="44" y="42" width="6" height="4"></rect>
                        <rect id="Rectangle" x="33" y="42" width="6" height="4"></rect>
                        <rect id="Rectangle" x="22" y="42" width="6" height="4"></rect>
                        <rect id="Rectangle" x="21" y="7" width="6" height="4"></rect>
                        <rect id="Rectangle" x="44" y="77" width="6" height="4"></rect>
                        <rect id="Rectangle" x="21" y="77" width="6" height="4"></rect>
                        <path d="M76,39.8623038 L77.8396306,43 C79.7556675,42.0743263 81.4914638,40.8856974 83,39.4643174 L80.1768822,37 C78.9563392,38.149541 77.5496781,39.1125259 76,39.8623038 Z" id="Path"></path>
                        <rect id="Rectangle" x="55" y="77" width="6" height="4"></rect>
                        <path d="M75,13.263031 C76.5842414,13.9590238 78.0315731,14.8809882 79.3067896,16 L82,13.3787285 C80.4255379,11.9957819 78.6359318,10.8586924 76.6800782,10 L75,13.263031 Z" id="Path"></path>
                        <rect id="Rectangle" x="55" y="7" width="6" height="4"></rect>
                        <path d="M86.268532,35 C87.1497093,33.2519685 87.7329215,31.391951 88,29.4654418 L84.3989826,29 C84.1827762,30.5555556 83.7122093,32.0586177 83,33.4724409 L86.268532,35 Z" id="Path"></path>
                        <path d="M16.5077102,42 C14.5874309,42.2833935 12.7352342,42.8754513 11,43.7635379 L12.5484434,47 C13.951993,46.2833935 15.4480652,45.8032491 17,45.5740072 L16.5077102,42 Z" id="Path"></path>
                        <path d="M2,69.7573386 C2.89014925,71.6908023 4.05253731,73.4559687 5.45671642,75 L8,72.2426614 C6.86268657,70.9921722 5.92059701,69.5636008 5.20059701,68 L2,69.7573386 Z" id="Path"></path>
                        <path d="M0,62.146408 C0.00189125296,63.1030615 0.0775413712,64.0633525 0.221276596,65 L3.96217494,64.4634738 C3.84491726,63.7014247 3.78439716,62.9193695 3.78250591,62.1427705 C3.78250591,61.2861473 3.85626478,60.4313428 4,59.6001819 L0.26855792,59 C0.0907801418,60.0294028 0,61.0860867 0,62.146408 Z" id="Path"></path>
                        <rect id="Rectangle" x="55" y="42" width="6" height="4"></rect>
                        <path d="M83,19.9228333 C83.7495622,21.5110855 84.2732049,23.2202707 84.5516637,25 L88,24.2824647 C87.6532399,22.0794702 87.0070053,19.9651598 86.0788091,18 L83,19.9228333 Z" id="Path"></path>
                        <path d="M11,78.1729055 C12.7172654,79.0766488 14.5544612,79.6916221 16.4577057,80 L17,76.4777184 C15.4600232,76.228164 13.9756663,75.7326203 12.585168,75 L11,78.1729055 Z" id="Path"></path>
                        <rect id="Rectangle" x="43" y="7" width="6" height="4"></rect>
                        <path d="M5.50950119,48 C4.09501188,49.5194406 2.91389549,51.2640559 2,53.1868531 L5.15855107,55 C5.89608076,53.4453147 6.85273159,52.0335664 8,50.801958 L5.50950119,48 Z" id="Path"></path>
                        <path d="M65,7 L65,10.8666022 L68.4274736,10.8666022 C69.1287224,10.8685355 69.8318924,10.9110681 70.5158501,11 L71,7.16433059 C70.1565802,7.05606573 69.2920269,7.0019333 68.4293948,7 L65,7 Z" id="Path"></path>
                        <rect id="Rectangle" x="65" y="77" width="6" height="4"></rect>
                        <path d="M68.5741385,42.2370649 L66,42.2370649 L66,46 L68.5741385,46 C69.7236801,46 70.8770155,45.9021637 72,45.7083725 L71.3512488,42 C70.4407208,42.1580433 69.5074297,42.2370649 68.5741385,42.2370649 Z" id="Path"></path>
                    </g>
                    <path d="M32.7,17 L40.7,17 C42.909139,17 44.7,15.209139 44.7,13 C44.7,10.790861 42.909139,9 40.7,9 L32.7,9 C30.490861,9 28.7,10.790861 28.7,13 C28.7,15.209139 30.490861,17 32.7,17 Z M52.7,17 L60.7,17 C62.909139,17 64.7,15.209139 64.7,13 C64.7,10.790861 62.909139,9 60.7,9 L52.7,9 C50.490861,9 48.7,10.790861 48.7,13 C48.7,15.209139 50.490861,17 52.7,17 Z M72.7,17 L74.7,17 C76.6665091,16.97305 78.3702086,17.1190499 79.8657204,17.4290071 C82.0288874,17.8773415 84.1459275,16.487195 84.5942618,14.324028 C85.0425962,12.160861 83.6524496,10.0438208 81.4892826,9.5954865 C79.3955862,9.16155051 77.1142848,8.96605254 74.6444013,9.00038642 L72.7,9 C70.490861,9 68.7,10.790861 68.7,13 C68.7,15.209139 70.490861,17 72.7,17 Z M86.9416447,22.0393091 C87.8079314,23.5012112 88.3984178,25.351889 88.684858,27.6159391 L88.7380837,28.0742681 C88.9708841,30.2711065 90.9404955,31.8632739 93.1373339,31.6304735 C95.3341724,31.3976731 96.9263398,29.4280617 96.6935394,27.2312233 C96.3163777,23.6721084 95.3713011,20.5720766 93.8240298,17.9609791 C92.6978301,16.0604609 90.2441904,15.4327518 88.3436722,16.5589515 C86.4431541,17.6851512 85.815445,20.1387909 86.9416447,22.0393091 Z M87.7652686,38.1072839 C87.0613545,39.8910765 86.046032,41.1851134 84.6727087,42.0940506 L84.4110039,42.2599889 C82.5227331,43.4066052 81.9215034,45.8668672 83.0681196,47.7551379 C84.2147358,49.6434086 86.6749978,50.2446384 88.5632686,49.0980221 C91.5986588,47.2548396 93.8318033,44.5282692 95.206816,41.0438418 C96.0177241,38.9889152 95.0092478,36.6656972 92.9543212,35.8547891 C90.9636111,35.069222 88.7211158,35.9911043 87.8456675,37.9177239 L87.7652686,38.1072839 Z M75.0220079,43.7590822 C74.9082707,43.7498963 74.7941926,43.7455815 74.6800865,43.7461 L66.6842029,43.7859565 C64.4750913,43.7969544 62.6931681,45.5967088 62.7040154,47.8058204 C62.7151639,50.0149321 64.5149182,51.7968553 66.7240299,51.785908 L74.7199135,51.7460504 L74.7,47.7461 L74.3779921,51.7331178 C76.5836704,51.9110551 78.5127373,50.2699983 78.6903764,48.0680129 C78.8626326,45.9327544 77.3247467,44.0541245 75.2235737,43.7802543 L75.0220079,43.7590822 Z M54.6843516,43.8456463 L46.6844508,43.8855239 C44.4753391,43.8965218 42.6934159,45.6962762 42.7043632,47.9053878 C42.7154117,50.1144995 44.5151661,51.8964227 46.7242777,51.8854754 L54.7241786,51.8455978 C56.9332902,51.8345999 58.7152134,50.0348455 58.7042662,47.8257339 C58.6932176,45.6166223 56.8934632,43.8346991 54.6843516,43.8456463 Z M34.6845995,43.9452137 L26.6846986,43.9850913 C24.475587,43.9960892 22.6936637,45.7958436 22.704611,48.0049552 C22.7156596,50.2140668 24.5154139,51.9959901 26.7245256,51.9850428 L34.7244264,51.9451652 C36.933538,51.9341673 38.7154613,50.1344129 38.704514,47.9253013 C38.6934655,45.7161897 36.8937111,43.9342664 34.6845995,43.9452137 Z M12.9566415,47.2396547 C10.0569679,49.1541269 7.8994461,51.8624371 6.5261942,55.2626234 C5.69890161,57.3110086 6.68879279,59.6422061 8.73717803,60.4694987 C10.7855633,61.2967913 13.1167608,60.3069001 13.9440533,58.2585149 C14.6742848,56.4504541 15.7096637,55.0950427 17.0848943,54.1082668 L17.364482,53.9158019 C19.2080492,52.6986104 19.7158269,50.2173752 18.4986354,48.373808 C17.2814439,46.5302409 14.8002087,46.0224631 12.9566415,47.2396547 Z M4.8133985,68.9901648 C5.09670776,72.5817902 5.914951,75.6905539 7.31018084,78.2984901 C8.35229303,80.2463857 10.7761733,80.9806682 12.7240689,79.938556 C14.6091291,78.9300604 15.3576111,76.6275051 14.4594578,74.7145976 L14.3641348,74.524668 C13.5293241,72.9642561 12.9901367,70.9157137 12.7886255,68.3610748 C12.6149071,66.1587767 10.6887651,64.5142879 8.48646699,64.6880063 C6.28416887,64.8617247 4.63968009,66.7878667 4.8133985,68.9901648 Z M19.9493775,86.7446742 C21.1253624,86.913443 22.3587693,86.9978225 23.6496804,87 L28.5538568,87 C30.7629958,87 32.5538863,85.2091685 32.5538863,83.0000295 C32.5538863,80.7908905 30.7630548,79.0000163 28.5539158,79 L23.6563281,78.9999639 C22.7382931,78.9984395 21.8792385,78.9396701 21.0858355,78.8258067 C18.8991006,78.5119825 16.871997,80.0302766 16.5581727,82.2170114 C16.2443485,84.4037463 17.7626426,86.43085 19.9493775,86.7446742 Z M40.5538863,87 L48.5538863,87 C50.7630253,87 52.5538863,85.209139 52.5538863,83 C52.5538863,80.790861 50.7630253,79 48.5538863,79 L40.5538863,79 C38.3447473,79 36.5538863,80.790861 36.5538863,83 C36.5538863,85.209139 38.3447473,87 40.5538863,87 Z M60.5538863,87 L68.5538863,87 C70.7630253,87 72.5538863,85.209139 72.5538863,83 C72.5538863,80.790861 70.7630253,79 68.5538863,79 L60.5538863,79 C58.3447473,79 56.5538863,80.790861 56.5538863,83 C56.5538863,85.209139 58.3447473,87 60.5538863,87 Z" id="Path-3" fill-rule="nonzero"></path>
                    <circle id="Oval" cx="12.7" cy="12" r="12"></circle>
                    <circle id="Oval" cx="88.7" cy="82" r="12"></circle>
                </g>
            </g>
        </g>
    </g>
</svg>