<svg xmlns="http://www.w3.org/2000/svg" xmlns:xlink="http://www.w3.org/1999/xlink" version="1.1" x="0px" y="0px" viewBox="0 0 100 125" enable-background="new 0 0 100 100" xml:space="preserve"><g><path d="M52.183,33H43v15h9.033c2.529,0,4.455-0.463,5.779-1.729c1.327-1.262,1.99-2.962,1.99-5.266   c0-2.529-0.684-4.368-2.045-5.88C56.395,33.614,54.537,33,52.183,33z"/><path d="M82.997,3H15.265C8.073,3,2,9.048,2,16.242v67.732C2,91.168,8.073,97,15.265,97h67.732C90.191,97,96,91.168,96,83.975   V16.242C96,9.048,90.191,3,82.997,3z M67.367,53.465C63.587,56.625,58.4,58,51.81,58H43v19H30V23h22.033   c4.137,0,7.802,0.588,10.983,2.113c3.186,1.523,5.65,3.605,7.398,6.417c1.743,2.813,2.618,5.856,2.618,9.425   C73.033,46.233,71.145,50.308,67.367,53.465z"/></g><text x="0" y="115" fill="#000000" font-size="5px" font-weight="bold" font-family="'Helvetica Neue', Helvetica, Arial-Unicode, Arial, Sans-serif">Created by bmijnlieff</text><text x="0" y="120" fill="#000000" font-size="5px" font-weight="bold" font-family="'Helvetica Neue', Helvetica, Arial-Unicode, Arial, Sans-serif">from the Noun Project</text></svg>