<?xml version="1.0" encoding="UTF-8"?>
<!-- Generated by Pixelmator Pro 3.7.1 -->
<svg width="3300" height="2200" viewBox="0 0 3300 2200" xmlns="http://www.w3.org/2000/svg">
    <g id="Notes">
        <path id="artboard" fill="#ffffff" stroke="none" d="M -44 -45 L 3256 -45 L 3256 2155 L -44 2155 Z"/>
        <path id="Trac" fill="none" stroke="#000000" stroke-width="0.5" d="M 219 247 L 2992 247"/>
        <text id="WeightScale-Variations" xml:space="preserve" x="218" y="279" font-family="Helvetica" font-size="13" font-weight="700" fill="#000000">Weight/Scale Variations</text>
        <text id="Ultralight" xml:space="preserve" x="488.352295" y="279" font-family="Helvetica" font-size="13" fill="#000000">Ultralight</text>
        <text id="Thin" xml:space="preserve" x="797.355469" y="279" font-family="Helvetica" font-size="13" fill="#000000">Thin</text>
        <text id="Light" xml:space="preserve" x="1093.905029" y="279" font-family="Helvetica" font-size="13" fill="#000000">Light</text>
        <text id="Regular" xml:space="preserve" x="1381.237305" y="279" font-family="Helvetica" font-size="13" fill="#000000">Regular</text>
        <text id="Medium" xml:space="preserve" x="1677.881836" y="279" font-family="Helvetica" font-size="13" fill="#000000">Medium</text>
        <text id="Semibold" xml:space="preserve" x="1970.901855" y="279" font-family="Helvetica" font-size="13" fill="#000000">Semibold</text>
        <text id="Bold" xml:space="preserve" x="2280.990479" y="279" font-family="Helvetica" font-size="13" fill="#000000">Bold</text>
        <text id="Heavy" xml:space="preserve" x="2572.575928" y="279" font-family="Helvetica" font-size="13" fill="#000000">Heavy</text>
        <text id="Black" xml:space="preserve" x="2871.105469" y="279" font-family="Helvetica" font-size="13" fill="#000000">Black</text>
        <path id="path1" fill="none" stroke="#000000" stroke-width="0.5" d="M 219 1858 L 2992 1858"/>
        <g id="Associer">
            <path id="path2" fill="#000000" stroke="none" d="M 228.248047 1888.830078 C 232.603516 1888.830078 236.138672 1885.304688 236.138672 1880.949219 C 236.138672 1876.59375 232.603516 1873.068359 228.248047 1873.068359 C 223.902344 1873.068359 220.367188 1876.59375 220.367188 1880.949219 C 220.367188 1885.304688 223.902344 1888.830078 228.248047 1888.830078 Z M 228.248047 1887.345703 C 224.712891 1887.345703 221.861328 1884.484375 221.861328 1880.949219 C 221.861328 1877.414063 224.712891 1874.552734 228.248047 1874.552734 C 231.783203 1874.552734 234.644531 1877.414063 234.644531 1880.949219 C 234.644531 1884.484375 231.783203 1887.345703 228.248047 1887.345703 Z M 228.970703 1883.791016 L 228.970703 1878.097656 C 228.970703 1877.648438 228.677734 1877.345703 228.228516 1877.345703 C 227.798828 1877.345703 227.505859 1877.648438 227.505859 1878.097656 L 227.505859 1883.791016 C 227.505859 1884.230469 227.798828 1884.533203 228.228516 1884.533203 C 228.677734 1884.533203 228.970703 1884.230469 228.970703 1883.791016 Z M 225.40625 1881.671875 L 231.089844 1881.671875 C 231.529297 1881.671875 231.832031 1881.378906 231.832031 1880.949219 C 231.832031 1880.509766 231.529297 1880.207031 231.089844 1880.207031 L 225.40625 1880.207031 C 224.957031 1880.207031 224.654297 1880.509766 224.654297 1880.949219 C 224.654297 1881.378906 224.957031 1881.671875 225.40625 1881.671875 Z"/>
        </g>
        <g id="g1">
            <path id="path3" fill="#000000" stroke="none" d="M 249.214966 1890.910156 C 254.713013 1890.910156 259.175934 1886.447266 259.175934 1880.949219 C 259.175934 1875.451172 254.713013 1870.988281 249.214966 1870.988281 C 243.716949 1870.988281 239.254028 1875.451172 239.254028 1880.949219 C 239.254028 1886.447266 243.716949 1890.910156 249.214966 1890.910156 Z M 249.214966 1889.25 C 244.625153 1889.25 240.914215 1885.539063 240.914215 1880.949219 C 240.914215 1876.359375 244.625153 1872.648438 249.214966 1872.648438 C 253.80481 1872.648438 257.515747 1876.359375 257.515747 1880.949219 C 257.515747 1885.539063 253.80481 1889.25 249.214966 1889.25 Z M 250.025513 1884.630859 L 250.025513 1877.248047 C 250.025513 1876.75 249.683716 1876.408203 249.195435 1876.408203 C 248.716919 1876.408203 248.384888 1876.75 248.384888 1877.248047 L 248.384888 1884.630859 C 248.384888 1885.119141 248.716919 1885.460938 249.195435 1885.460938 C 249.683716 1885.460938 250.025513 1885.128906 250.025513 1884.630859 Z M 245.513794 1881.75 L 252.906372 1881.75 C 253.394653 1881.75 253.73645 1881.427734 253.73645 1880.949219 C 253.73645 1880.460938 253.394653 1880.119141 252.906372 1880.119141 L 245.513794 1880.119141 C 245.015747 1880.119141 244.683716 1880.460938 244.683716 1880.949219 C 244.683716 1881.427734 245.015747 1881.75 245.513794 1881.75 Z"/>
        </g>
        <g id="g2">
            <path id="path4" fill="#000000" stroke="none" d="M 275.894714 1893.664063 C 282.916168 1893.664063 288.619293 1887.970703 288.619293 1880.949219 C 288.619293 1873.927734 282.916168 1868.224609 275.894714 1868.224609 C 268.87323 1868.224609 263.179871 1873.927734 263.179871 1880.949219 C 263.179871 1887.970703 268.87323 1893.664063 275.894714 1893.664063 Z M 275.894714 1891.847656 C 269.869293 1891.847656 264.996246 1886.974609 264.996246 1880.949219 C 264.996246 1874.923828 269.869293 1870.050781 275.894714 1870.050781 C 281.920105 1870.050781 286.793152 1874.923828 286.793152 1880.949219 C 286.793152 1886.974609 281.920105 1891.847656 275.894714 1891.847656 Z M 276.783386 1885.783203 L 276.783386 1876.085938 C 276.783386 1875.539063 276.412292 1875.158203 275.875153 1875.158203 C 275.357605 1875.158203 274.986481 1875.539063 274.986481 1876.085938 L 274.986481 1885.783203 C 274.986481 1886.320313 275.357605 1886.701172 275.875153 1886.701172 C 276.412292 1886.701172 276.783386 1886.330078 276.783386 1885.783203 Z M 271.041199 1881.828125 L 280.738464 1881.828125 C 281.275574 1881.828125 281.656433 1881.466797 281.656433 1880.949219 C 281.656433 1880.402344 281.285339 1880.03125 280.738464 1880.03125 L 271.041199 1880.03125 C 270.494324 1880.03125 270.12323 1880.402344 270.12323 1880.949219 C 270.12323 1881.466797 270.494324 1881.828125 271.041199 1881.828125 Z"/>
        </g>
        <text id="Design-Variations" xml:space="preserve" x="218" y="1910" font-family="Helvetica" font-size="13" font-weight="700" fill="#000000">Design Variations</text>
        <text id="Symbols-are-supported-in" xml:space="preserve" x="218" y="1928" font-family="Helvetica" font-size="13" fill="#000000">Symbols are supported in up to nine weights and three scales.</text>
        <text id="For-optimal-layout-with" xml:space="preserve" x="218" y="1946" font-family="Helvetica" font-size="13" fill="#000000">For optimal layout with text and other symbols, vertically align</text>
        <text id="symbols-with-the-adjacent" xml:space="preserve" x="218" y="1964" font-family="Helvetica" font-size="13" fill="#000000">symbols with the adjacent text.</text>
        <path id="path5" fill="none" stroke="#00aeef" stroke-width="0.5" d="M 732 1874 L 732 1888"/>
        <g id="g3">
            <path id="path6" fill="#000000" stroke="none" d="M 735.310547 1888.15625 C 735.828125 1888.15625 736.082031 1887.960938 736.267578 1887.414063 L 740.378906 1875.910156 L 740.427734 1875.910156 L 744.548828 1887.414063 C 744.734375 1887.960938 744.988281 1888.15625 745.496094 1888.15625 C 746.013672 1888.15625 746.345703 1887.84375 746.345703 1887.355469 C 746.345703 1887.189453 746.316406 1887.033203 746.238281 1886.828125 L 741.658203 1874.630859 C 741.433594 1874.035156 741.033203 1873.732422 740.408203 1873.732422 C 739.802734 1873.732422 739.392578 1874.025391 739.177734 1874.621094 L 734.597656 1886.837891 C 734.519531 1887.042969 734.490234 1887.199219 734.490234 1887.365234 C 734.490234 1887.853516 734.802734 1888.15625 735.310547 1888.15625 Z M 737.351563 1883.966797 L 743.484375 1883.966797 C 743.884766 1883.966797 744.216797 1883.634766 744.216797 1883.234375 C 744.216797 1882.824219 743.884766 1882.501953 743.484375 1882.501953 L 737.351563 1882.501953 C 736.951172 1882.501953 736.619141 1882.824219 736.619141 1883.234375 C 736.619141 1883.634766 736.951172 1883.966797 737.351563 1883.966797 Z"/>
        </g>
        <path id="path7" fill="none" stroke="#00aeef" stroke-width="0.5" d="M 748.835999 1874 L 748.835999 1888"/>
        <text id="Margins" xml:space="preserve" x="731" y="1910" font-family="Helvetica" font-size="13" font-weight="700" fill="#000000">Margins</text>
        <text id="Leading-and-trailing-margins" xml:space="preserve" x="731" y="1928" font-family="Helvetica" font-size="13" fill="#000000">Leading and trailing margins on the left and right side of each symbol</text>
        <text id="can-be-adjusted-by" xml:space="preserve" x="731" y="1946" font-family="Helvetica" font-size="13" fill="#000000">can be adjusted by modifying the x-location of the margin guidelines.</text>
        <text id="Modifications-are-automatically-applied" xml:space="preserve" x="731" y="1964" font-family="Helvetica" font-size="13" fill="#000000">Modifications are automatically applied proportionally to all</text>
        <text id="scales-and-weights" xml:space="preserve" x="731" y="1982" font-family="Helvetica" font-size="13" fill="#000000">scales and weights.</text>
        <g id="g4">
            <path id="path8" fill="#000000" stroke="none" d="M 1247.841797 1890.626953 L 1249.414063 1892.199219 C 1250.273438 1893.078125 1251.279297 1893.019531 1252.1875 1891.994141 L 1264.326172 1878.351563 L 1263.349609 1877.375 L 1251.298828 1890.910156 C 1250.9375 1891.300781 1250.605469 1891.398438 1250.136719 1890.929688 L 1249.101563 1889.904297 C 1248.642578 1889.445313 1248.740234 1889.113281 1249.140625 1888.742188 L 1262.636719 1876.310547 L 1261.660156 1875.34375 L 1248.046875 1887.863281 C 1247.050781 1888.78125 1246.982422 1889.757813 1247.841797 1890.626953 Z M 1256.816406 1871.134766 C 1256.40625 1871.535156 1256.367188 1872.111328 1256.601563 1872.492188 C 1256.826172 1872.853516 1257.294922 1873.097656 1257.919922 1872.941406 C 1259.091797 1872.609375 1260.439453 1872.462891 1261.699219 1873.126953 L 1261.162109 1874.552734 C 1260.839844 1875.353516 1261.015625 1875.929688 1261.503906 1876.4375 L 1263.554688 1878.498047 C 1264.023438 1878.976563 1264.462891 1878.986328 1264.970703 1878.888672 L 1265.859375 1878.742188 L 1266.376953 1879.25 L 1266.337891 1879.699219 C 1266.318359 1880.158203 1266.445313 1880.558594 1266.894531 1880.998047 L 1267.568359 1881.662109 C 1268.027344 1882.121094 1268.671875 1882.160156 1269.130859 1881.701172 L 1271.728516 1879.09375 C 1272.1875 1878.625 1272.158203 1878.019531 1271.689453 1877.560547 L 1271.005859 1876.876953 C 1270.566406 1876.4375 1270.195313 1876.271484 1269.736328 1876.300781 L 1269.267578 1876.349609 L 1268.779297 1875.861328 L 1268.984375 1874.923828 C 1269.111328 1874.376953 1268.935547 1873.927734 1268.408203 1873.400391 L 1266.152344 1871.164063 C 1263.564453 1868.595703 1259.033203 1868.957031 1256.816406 1871.134766 Z M 1258.232422 1871.544922 C 1259.990234 1870.265625 1263.427734 1870.412109 1264.970703 1871.935547 L 1267.431641 1874.376953 C 1267.636719 1874.582031 1267.675781 1874.738281 1267.617188 1875.041016 L 1267.324219 1876.369141 L 1268.671875 1877.707031 L 1269.550781 1877.658203 C 1269.775391 1877.648438 1269.853516 1877.667969 1270.019531 1877.833984 L 1270.527344 1878.332031 L 1268.359375 1880.5 L 1267.861328 1880.001953 C 1267.695313 1879.826172 1267.666016 1879.757813 1267.675781 1879.523438 L 1267.734375 1878.654297 L 1266.396484 1877.306641 L 1265.029297 1877.541016 C 1264.746094 1877.599609 1264.619141 1877.580078 1264.394531 1877.365234 L 1262.607422 1875.587891 C 1262.392578 1875.382813 1262.373047 1875.246094 1262.509766 1874.914063 L 1263.427734 1872.619141 C 1262.207031 1871.349609 1260.019531 1871.115234 1258.310547 1871.701172 C 1258.173828 1871.75 1258.125 1871.623047 1258.232422 1871.544922 Z"/>
        </g>
        <text id="Exporting" xml:space="preserve" x="1244" y="1910" font-family="Helvetica" font-size="13" font-weight="700" fill="#000000">Exporting</text>
        <text id="Symbols-should-be-outlined" xml:space="preserve" x="1244" y="1928" font-family="Helvetica" font-size="13" fill="#000000">Symbols should be outlined when exporting to ensure the</text>
        <text id="design-is-preserved-when" xml:space="preserve" x="1244" y="1946" font-family="Helvetica" font-size="13" fill="#000000">design is preserved when submitting to Xcode.</text>
        <text id="template-version" xml:space="preserve" x="2905.414063" y="1890" font-family="Helvetica" font-size="13" fill="#000000">Template v.7.0</text>
        <text id="Requires-Xcode-17-or" xml:space="preserve" x="2818.45752" y="1908" font-family="Helvetica" font-size="13" fill="#000000">Requires Xcode 17 or greater</text>
        <text id="Generated-from-arrowtrianglehead2clockwiserotate90" xml:space="preserve" x="2662.375" y="1926" font-family="Helvetica" font-size="13" fill="#000000">Generated from arrow.trianglehead.2.clockwise.rotate.90</text>
        <text id="Typeset-at-1000-points" xml:space="preserve" x="2854.569336" y="1944" font-family="Helvetica" font-size="13" fill="#000000">Typeset at 100.0 points</text>
        <text id="Small" xml:space="preserve" x="218" y="683" font-family="Helvetica" font-size="13" fill="#000000">Small</text>
        <text id="text1" xml:space="preserve" x="218" y="1113" font-family="Helvetica" font-size="13" fill="#000000">Medium</text>
        <text id="Large" xml:space="preserve" x="218" y="1543" font-family="Helvetica" font-size="13" fill="#000000">Large</text>
    </g>
    <g id="Guides">
        <g id="H-reference">
            <path id="path9" fill="#27aae1" stroke="none" d="M 339.993652 696 L 342.637756 696 L 368.328094 628.867676 L 369.030304 628.867676 L 369.030304 625.541016 L 367.122589 625.541016 Z M 350.688507 671.520142 L 385.981506 671.520142 L 385.231506 669.271484 L 351.438507 669.271484 Z M 394.119598 696 L 396.763702 696 L 369.638214 625.541016 L 368.432587 625.541016 L 368.432587 628.867676 Z"/>
        </g>
        <path id="Baseline-S" fill="none" stroke="#27aae1" stroke-width="0.5" d="M 263 696 L 3036 696"/>
        <path id="Capline-S" fill="none" stroke="#27aae1" stroke-width="0.5" d="M 263 625.541016 L 3036 625.541016"/>
        <g id="g5">
            <path id="path10" fill="#27aae1" stroke="none" d="M 339.993652 1126 L 342.637756 1126 L 368.328094 1058.867676 L 369.030304 1058.867676 L 369.030304 1055.541016 L 367.122589 1055.541016 Z M 350.688507 1101.520142 L 385.981506 1101.520142 L 385.231506 1099.271484 L 351.438507 1099.271484 Z M 394.119598 1126 L 396.763702 1126 L 369.638214 1055.541016 L 368.432587 1055.541016 L 368.432587 1058.867676 Z"/>
        </g>
        <path id="Baseline-M" fill="none" stroke="#27aae1" stroke-width="0.5" d="M 263 1126 L 3036 1126"/>
        <path id="Capline-M" fill="none" stroke="#27aae1" stroke-width="0.5" d="M 263 1055.540039 L 3036 1055.540039"/>
        <g id="g6">
            <path id="path11" fill="#27aae1" stroke="none" d="M 339.993652 1556 L 342.637756 1556 L 368.328094 1488.867676 L 369.030304 1488.867676 L 369.030304 1485.541016 L 367.122589 1485.541016 Z M 350.688507 1531.52002 L 385.981506 1531.52002 L 385.231506 1529.271484 L 351.438507 1529.271484 Z M 394.119598 1556 L 396.763702 1556 L 369.638214 1485.541016 L 368.432587 1485.541016 L 368.432587 1488.867676 Z"/>
        </g>
        <path id="Baseline-L" fill="none" stroke="#27aae1" stroke-width="0.5" d="M 263 1556 L 3036 1556"/>
        <path id="Capline-L" fill="none" stroke="#27aae1" stroke-width="0.5" d="M 263 1485.540039 L 3036 1485.540039"/>
        <path id="right-margin-Black-S" fill="none" stroke="#00aeef" stroke-width="0.5" d="M 2982.22998 600.784912 L 2982.22998 720.120972"/>
        <path id="left-margin-Black-S" fill="none" stroke="#00aeef" stroke-width="0.5" d="M 2884.570068 600.784912 L 2884.570068 720.120972"/>
        <path id="right-margin-Regular-S" fill="none" stroke="#ff3b30" stroke-width="0.5" d="M 1496.109985 600.784912 L 1496.109985 720.120972"/>
        <path id="left-margin-Regular-S" fill="none" stroke="#ff3b30" stroke-width="0.5" d="M 1403.579956 600.784912 L 1403.579956 720.120972"/>
        <path id="right-margin-Ultralight-S" fill="none" stroke="#ff3b30" stroke-width="0.5" d="M 603.750977 600.784912 L 603.750977 720.120972"/>
        <path id="left-margin-Ultralight-S" fill="none" stroke="#ff3b30" stroke-width="0.5" d="M 515.671997 600.784912 L 515.671997 720.120972"/>
    </g>
    <g id="Symbols">
        <g id="Black-S">
            <path id="Vector-3-Stroke-copie" fill="none" stroke="#000000" stroke-width="0.5" d="M 2919.456543 695.545898 L 2918.201416 700.335815 C 2917.541992 702.852051 2915.667236 703.001099 2914.105957 701.140625 L 2905.864014 691.382568 C 2904.55957 689.845581 2905.039063 688.178467 2906.879395 687.508423 L 2918.887939 683.057373 C 2921.110596 682.231323 2922.660645 683.320557 2922.011475 685.796997 L 2920.726318 690.701294 C 2940.725098 694.770996 2957.10791 691.304443 2962.594727 689.170654 C 2963.881592 688.670288 2965.330566 689.307739 2965.831055 690.594482 C 2966.331299 691.881226 2965.693848 693.330322 2964.407227 693.830811 C 2958.006348 696.319946 2940.525879 699.89502 2919.456543 695.545898 Z"/>
            <path id="Trac-copie" fill="none" stroke="#000000" stroke-width="0.5" d="M 2906.252197 661.428589 C 2904.600342 668.586548 2909.009521 675 2916.27417 675 L 2955.735596 675 C 2963.000488 675 2967.409424 668.586548 2965.757813 661.428589 L 2957.065918 623.764038 C 2956.309814 620.488037 2952.202393 618 2947.843262 618 L 2924.166504 618 C 2919.807617 618 2915.699951 620.488037 2914.943848 623.764038 Z"/>
        </g>
        <g id="Regular-S">
            <path id="Vector-3-Stroke" fill="none" stroke="#000000" stroke-width="0.5" d="M 1434.456665 695.545898 L 1433.201416 700.335815 C 1432.54187 702.852051 1430.667358 703.001099 1429.106079 701.140625 L 1420.864136 691.382568 C 1419.55957 689.845581 1420.039063 688.178467 1421.879395 687.508423 L 1433.887939 683.057373 C 1436.110596 682.231323 1437.660645 683.320557 1437.011475 685.796997 L 1435.726318 690.701294 C 1455.725098 694.770996 1472.107788 691.304443 1477.594727 689.170654 C 1478.88147 688.670288 1480.330444 689.307739 1480.831055 690.594482 C 1481.331421 691.881226 1480.693848 693.330322 1479.407227 693.830811 C 1473.006348 696.319946 1455.525757 699.89502 1434.456665 695.545898 Z"/>
            <path id="path12" fill="none" stroke="#000000" stroke-width="0.5" d="M 1421.252197 661.428589 C 1419.600464 668.586548 1424.009521 675 1431.27417 675 L 1470.735718 675 C 1478.000366 675 1482.409424 668.586548 1480.75769 661.428589 L 1472.065918 623.764038 C 1471.309814 620.488037 1467.202271 618 1462.843384 618 L 1439.166504 618 C 1434.807617 618 1430.700073 620.488037 1429.94397 623.764038 Z"/>
        </g>
        <g id="Ultralight-S">
            <path id="path13" fill="none" stroke="#000000" stroke-width="0.5" d="M 543.456665 695.545898 L 542.201416 700.335815 C 541.541931 702.852051 539.667358 703.001099 538.106018 701.140625 L 529.864075 691.382568 C 528.55957 689.845581 529.039063 688.178467 530.879456 687.508423 L 542.887939 683.057373 C 545.110596 682.231323 546.660645 683.320557 546.011536 685.796997 L 544.726257 690.701294 C 564.725098 694.770996 581.107788 691.304443 586.594727 689.170654 C 587.88147 688.670288 589.330505 689.307739 589.830994 690.594482 C 590.331421 691.881226 589.693909 693.330322 588.407227 693.830811 C 582.006348 696.319946 564.525818 699.89502 543.456665 695.545898 Z"/>
            <path id="path14" fill="none" stroke="#000000" stroke-width="0.5" d="M 530.252136 661.428589 C 528.600403 668.586548 533.00946 675 540.27417 675 L 579.735718 675 C 587.000427 675 591.409485 668.586548 589.757751 661.428589 L 581.065918 623.764038 C 580.309814 620.488037 576.202271 618 571.843384 618 L 548.166504 618 C 543.807617 618 539.700073 620.488037 538.94397 623.764038 Z"/>
        </g>
    </g>
    <g id="Data">
        <g id="Black-S-draw-attachment-data"/>
        <g id="Regular-S-draw-attachment-data"/>
        <g id="Ultralight-S-draw-attachment-data"/>
    </g>
</svg>
